<?xml version="1.0" encoding="UTF-8"?><svg id="uuid-8d035d2e-77b1-40ee-a2dd-cf10e4af404e" xmlns="http://www.w3.org/2000/svg" width="84.4416" height="77.0037" xmlns:xlink="http://www.w3.org/1999/xlink" viewBox="0 0 84.4416 77.0037"><defs><clipPath id="uuid-2ca8df4a-a893-4d2c-a6ad-a246448964d5"><rect width="84.4416" height="77.0037" fill="none"/></clipPath><clipPath id="uuid-688875d9-c821-4932-a874-073a36ad04ac"><rect width="84.4416" height="77.0037" fill="none"/></clipPath><clipPath id="uuid-c952a1c3-44b5-4da2-9f87-41e6f9039344"><rect width="84.4416" height="77.0037" fill="none"/></clipPath></defs><g clip-path="url(#uuid-2ca8df4a-a893-4d2c-a6ad-a246448964d5)"><g clip-path="url(#uuid-688875d9-c821-4932-a874-073a36ad04ac)"><path d="M13.6308,.0379l.02-.0339L77.7801,14.1757h6.6615v62.8281H11.9881c-2.513,0-4.5502-2.0372-4.5502-4.5502v-6.1561L13.6308,.0379Z" fill="#705a01"/><path d="M78.2288,63.0031H13.6308V.0379l.0199-.0379h60.0279c2.513,0,4.5502,2.0372,4.5502,4.5502V63.0031Z" fill="#dbae03"/><polygon points="0 71.2285 13.6507 63.0031 13.6507 0 0 8.2254 0 71.2285" fill="#eacd5d"/></g><g clip-path="url(#uuid-c952a1c3-44b5-4da2-9f87-41e6f9039344)"><path d="M30.1033,14.0964h9.0288l7.2324,28.083,6.5845-28.083h8.8291l-9.7271,34.917h-11.6221L30.1033,14.0964Z" fill="#fff"/></g></g></svg>