<?xml version="1.0" encoding="UTF-8"?>
<svg id="a" xmlns="http://www.w3.org/2000/svg" viewBox="0 0 445.6124658 499.9999695">
  <defs>
    <style>
      .b {
        fill: #be2230;
      }

      .c, .d {
        fill: #f9ae41;
      }

      .c, .e {
        fill-rule: evenodd;
      }

      .f {
        fill: #fff;
      }

      .g {
        fill: #f29d28;
      }

      .h {
        fill: #f59220;
      }

      .i {
        fill: #282560;
      }
    </style>
  </defs>
  <g>
    <path class="g" d="M223.0959626,0c80.130722,2.9670851,152.7976532,28.0930519,218.1285248,74.2896042l3.164093,2.2483902.2084961,3.871109c6.5018311,121.3431244-17.164093,237.3441925-101.7106323,328.6699982-33.4128723,36.0786133-73.2463989,65.0411987-116.1976929,88.7651367l-3.882431,2.1557312-3.8709412-2.1557312c-42.9629669-23.723938-82.7964935-52.6865234-116.2208557-88.7651367C18.1796361,317.7532654-5.4863085,201.752243,1.0153548,80.4091034l.1971817-3.871109,3.1754073-2.2483902C69.7303086,28.0930519,142.3973695,2.9670851,222.516449,0h.2898407"/>
    <path class="b" d="M222.794632,490.8209229C85.7703934,415.0827942-2.4035675,294.909668,9.023902,80.8261032,72.4190369,35.997261,143.3823853,10.9519358,222.794632,8.0432091"/>
    <path class="i" d="M222.794632,490.8209229c137.0474091-75.7381287,225.2328339-195.9112549,213.8055267-409.994812C373.1933594,35.997261,302.2300111,10.9519358,222.794632,8.0432091"/>
  </g>
  <g>
    <path class="c" d="M63.9354897,245.0167236c-11.8329697-23.0056152-30.5966263-24.2689819-20.9657135-50.0213318,11.8448181,22.9939423,29.7159538,23.9329834,20.9657135,50.0213318"/>
    <path class="c" d="M76.4638062,279.4956055c-16.3297577-20.154541-35.3019104-15.2984009-30.8282928-45.4315186,16.387764,20.1661987,34.3863907,15.2637482,30.8282928,45.4315186"/>
    <path class="c" d="M91.7507172,310.0690613c-19.9458542-16.5501099-38.2226639-6.1195068-38.8253479-39.0453491,19.9341812,16.5730896,37.2491379,6.3278198,38.8253479,39.0453491"/>
    <path class="c" d="M109.7493516,340.1091614c-22.6345901-12.8991699-39.8798676,2.2947388-45.0141754-32.3114929,22.6114197,12.9223328,38.9180145-1.8080444,45.0141754,32.3114929"/>
    <path class="c" d="M133.5196381,366.6960449c-25.0568237-6.7800293-39.636528,14.3130188-51.0059967-20.4558716,25.0453186,6.7800293,38.7326813-13.559845,51.0059967,20.4558716"/>
    <path class="c" d="M162.0880433,388.8320923c-26.4706879-.26651-37.6778107,25.9376831-54.9579163-7.4868469,26.4358521.2548218,36.8897858-24.8829956,54.9579163,7.4868469"/>
    <path class="c" d="M191.9081574,400.7579041c-26.6445312,7.6608582-33.1578522,38.4889832-56.5804596,8.6342163,26.6096802-7.6955261,32.6016846-37.1677856,56.5804596-8.6342163"/>
    <path class="c" d="M217.706833,409.6934814c-24.512146,17.7438049-24.1179504,52.2925415-53.8453979,29.7852783,24.5353088-17.7782898,23.8746185-50.6697998,53.8453979-29.7852783"/>
    <path class="c" d="M383.1950989,248.0414581c11.8329773-23.016922,30.585144-24.280304,20.9425354-50.0326385-11.8214722,23.005249-29.7042847,23.9442902-20.9425354,50.0326538"/>
    <path class="c" d="M370.655304,282.5090027c16.3412476-20.1428528,35.3019104-15.2984009,30.8283081-45.4315186-16.3644104,20.1775208-34.3863831,15.2750549-30.8283081,45.4315186"/>
    <path class="c" d="M355.380066,313.082489c19.9573364-16.5501099,38.2109985-6.1195068,38.8253479-39.0456848-19.9341736,16.5847778-37.2608032,6.3398438-38.8253479,39.0456848"/>
    <path class="c" d="M337.369751,343.1342468c22.6345825-12.8995056,39.8915405,2.2947388,45.0141602-32.3231506-22.6114197,12.9453125-38.9065247-1.8080444-45.0141602,32.3231506"/>
    <path class="c" d="M313.5993043,369.7091064c25.0568237-6.768158,39.6483765,14.313385,51.0176697-20.4438477-25.0336609,6.7796631-38.7325134-13.5715332-51.0176697,20.4438477"/>
    <path class="c" d="M285.0425721,391.8570251c26.4706726-.26651,37.6894836,25.9259949,54.9464417-7.4868469-26.4243469.2433472-36.889801-24.8714905-54.9464111,7.4868469"/>
    <path class="c" d="M255.2108002,403.7713318c26.6330109,7.6488342,33.1695099,38.4889832,56.603775,8.6225586-26.6445312-7.6725464-32.6015015-37.1679688-56.6038208-8.6225586"/>
    <path class="c" d="M229.4123078,412.7183838c24.512146,17.7667847,24.1296387,52.2807007,53.8455658,29.796936-24.5353088-17.7786255-23.8746338-50.681488-53.8455811-29.796936"/>
  </g>
  <g>
    <g>
      <path class="d" d="M37.8473168,119.4774323c1.1125259,2.8744202,1.6688766,4.3114548,2.8277283,7.162529-1.6688766,1.5183792-2.5148926,2.2947311-4.1722755,3.8594437-4.1257668-10.1292572-6.0381546-15.3213959-9.514904-25.8216705,2.2947235-2.0283966,3.4652557-3.0134201,5.7948189-4.9374771,9.7120857,5.192131,14.4522057,7.9622116,23.6891136,13.722374-1.8543854,1.4253616-2.7699051,2.1553726-4.60112,3.6157455-2.6424026-1.5876999-3.9636002-2.3527298-6.6408386-3.8937454-2.9902496,2.4333725-4.4619446,3.7084122-7.3825226,6.2928085M42.297596,111.0172272c-2.3410568-1.3097076-3.5115891-1.958725-5.8874817-3.268425-1.4601974-.8113556-2.9785805-1.7847061-4.2766113-2.6077347l-.0809937.0580063c.591011,1.4487076,1.3328705,3.15242,1.9238853,4.6357803.8691864,2.549736,1.332695,3.8477707,2.2598877,6.3628387,2.3990593-2.0977173,3.6159248-3.1290741,6.0613213-5.1804657"/>
      <path class="d" d="M44.6039925,90.4106827c1.8890457-1.4023743,2.8279114-2.0860519,4.7171326-3.4420853,2.7118988,3.8247757,4.0562668,5.7484818,6.7681656,9.5962524l.1043396-.0813446c.0231628-1.2283554.1389999-2.4333725.2550049-3.5577469.6141815-4.8444595,1.0081863-7.278183,1.8543854-12.1346664,2.3873901-1.5760345,3.5810852-2.3523788,6.003315-3.8590851-1.4487076,6.0151672-2.0628815,9.0399017-3.1639099,15.055069,7.0001831,2.3063965,10.430603,3.5810852,17.1062775,6.3278275-2.0977249,1.2980347-3.1639099,1.9933853-5.2269745,3.3494186-5.2962952-2.1323853-7.9968796-3.1407471-13.4786758-4.9951324-.2896729,1.5180283-.4288483,2.2947235-.6836777,3.8360977,2.0513916,2.9203949,3.1059036,4.3807755,5.1804581,7.3245163-1.7268829,1.228714-2.5960693,1.8660583-4.2997818,3.1177521-6.0728149-8.1938782-9.086235-12.2966537-15.1360626-20.5368652"/>
      <path class="d" d="M82.4789735,87.3396149c.5563507,3.0364075.8460236,4.5314484,1.4255371,7.5331879-1.8658752,1.1240158-2.8047409,1.6803665-4.6706238,2.8160629-2.1557236-10.6389236-3.0597534-16.0630722-4.5084534-26.9807053,2.561409-1.460022,3.859436-2.1553726,6.4323425-3.5464249,8.3677139,7.1045227,12.4124908,10.7786331,20.2121811,18.311821-2.0165482.9966888-3.02491,1.4950409-5.0414658,2.526741-2.2482147-2.0864029-3.3725891-3.1177597-5.6673126-5.1924896-3.29142,1.7617188-4.9256287,2.665741-8.1822052,4.5317993M88.2506257,80.1190796c-1.9933853-1.7847061-3.0132446-2.66539-5.0414658-4.4154358-1.2633743-1.1127014-2.5382385-2.3877411-3.639267-3.4654312l-.0811691.0346603c.2898483,1.5300522.7185135,3.3610916,1.0083618,4.9141388.382515,2.688736.5795135,4.0101089,1.0081863,6.6525116,2.6774139-1.5417252,4.0449448-2.2717361,6.7453537-3.7204361"/>
      <path class="d" d="M94.3236161,60.9035873c2.1787186-1.3677101,4.960289-2.8974075,8.0547028-4.2301025,5.3542938-2.3297386,9.457077-2.8164139,12.7718353-2.0397148,3.4652557.8343506,6.2234802,3.094059,7.6838684,7.1621742,1.5415497,4.2997818,1.0198517,8.0778732-.741684,11.1029587-1.8427124,3.1870804-5.574646,5.922142-10.6392822,8.1358719-2.7467346,1.2283554-4.879303,2.051033-6.5250092,2.6307297-4.2534485-9.097908-6.3743362-13.6640091-10.6044388-22.7619171M108.2659837,78.3227005c.7068481-.1853333,1.7266998-.6490173,2.7002258-1.0776825,6.2700043-2.688736,8.8314056-7.2668686,6.548172-13.2933464-1.9702148-5.2151222-6.7798309-6.9425316-13.2470093-4.1491089-1.6340332.718338-2.7235718,1.321022-3.4072418,1.7963791,2.9437408,6.7101631,4.4387817,10.0365944,7.4058685,16.7237663"/>
      <path class="d" d="M143.6259003,57.2761688c-4.2766113,1.1816711-6.3743286,1.8193703-10.5929413,3.1754074.9155273,2.8627472,1.3675385,4.2881088,2.2830505,7.150856,4.589447-1.4950409,6.8958435-2.1790695,11.5201416-3.4420853.4173584,1.4716949.6026764,2.1903839.9968719,3.6854248-6.5250092,1.7963791-9.7934265,2.7930679-16.2370911,5.0297928-3.3032684-9.6542549-4.9373016-14.4870453-8.2172241-24.1642914,6.8031769-2.3527298,10.2452698-3.4074249,17.1294403-5.3198166.4173584,1.4720459.6260223,2.2020569,1.0200348,3.6974487-4.6822968,1.2860069-7.0233459,1.9817123-11.6361389,3.4767494.7881927,2.5147171,1.1938782,3.7667732,1.9935608,6.2814903,4.2532654-1.3673553,6.4089966-2.0397148,10.7319489-3.2334137.3940125,1.460022.6026764,2.1903877,1.0083618,3.6624336"/>
      <path class="d" d="M173.6545106,51.5736618c-.695343-3.2217407-1.5296936-7.1158409-2.0397186-10.534584l-.1275024.0229912c-.4866791,3.2334099-1.1356964,6.837841-1.8543854,10.2335968-.9270172,4.6474533-1.3560333,6.9885139-2.1440582,11.6476402-1.5413666.289669-2.2947235.4520111-3.8246002.7533531-2.3410645-3.9521065-3.5579224-5.9221458-6.0033112-9.8512611-1.8080444-2.9320717-3.5927582-6.0961609-5.099472-9.0165558l-.0926666.0346603c.6141815,3.268074,1.3675385,7.26651,1.947052,10.7202682.6606903,4.0217819,1.0198517,6.0728149,1.7266998,10.1292572-1.8658752.4523697-2.7928925.6723633-4.6474609,1.1360474-1.8078766-10.0599365-2.66539-15.0897293-4.2996063-25.2306595,2.8625641-.7186928,4.2996063-1.043026,7.1738434-1.7150307,2.4572449,3.696743,3.639267,5.5047951,5.9920044,9.2252312,1.6340332,2.7000504,3.1060791,5.505146,4.357605,8.1475449l.1275024-.0350151c.2086792-2.8623924.6026764-6.1308212,1.1705322-9.2832375.8808594-4.3344421,1.3328705-6.4901657,2.3295593-10.8016205,2.8625641-.4983444,4.2881012-.741684,7.1625214-1.1590347,2.1440582,9.990612,3.1870728,14.9970627,5.2382965,25.0223351-1.9817047.289669-2.9552307.4403419-4.9139557.741684-.8691864-4.0681152-1.3097076-6.10783-2.178894-10.1876183"/>
      <path class="d" d="M188.4197236,34.3865662c.9620361,10.1526031,1.4718781,15.2287254,2.4917297,25.3813286-2.0280457.2316666-3.0247345.3243332-5.0414581.5793419-1.2168579-10.1409302-1.8078766-15.2174072-2.9900818-25.3466644,2.2135468-.2779999,3.3147583-.3823357,5.5398102-.6140022"/>
      <path class="d" d="M201.8522492,51.6433372c-.8230286,2.9554138-1.217041,4.4274597-1.9703979,7.3712044-2.0975494.1389999-3.1407471.2199936-5.2269745.4053268,2.665741-10.4886055,4.1954498-15.7037277,7.6028748-26.0996704,2.8394012-.1736603,4.2649384-.2203484,7.0928497-.301342,4.2071075,10.0945969,6.1309967,15.1707191,9.6774292,25.3696556-2.190567,0-3.2914124,0-5.4703064.0580063-1.0547028-2.8974075-1.5993805-4.3231239-2.6889038-7.1741982-3.615921.0813484-5.4123077.1393547-9.0165558.3710175M209.9301301,47.7722282c-.961853-2.4800568-1.4718781-3.7317581-2.4802399-6.2234879-.6141815-1.5180283-1.1705322-3.2567558-1.6687012-4.7054596l-.0928497.0233421c-.3825073,1.4833641-.8111877,3.2914162-1.2168579,4.8211136-.8113556,2.550087-1.205368,3.8247757-1.958725,6.3745117,2.9670868-.1506691,4.4504547-.2086754,7.4173584-.2900238"/>
      <path class="d" d="M248.1527863,48.7459297c-4.3346252-.4983444-6.5249939-.7070198-10.8711243-.9966927-.2084961,3.0017471-.3130188,4.4851112-.5446777,7.4872131,4.7401123.3356476,7.092865.5446777,11.8098145,1.0776863-.1853333,1.5296974-.2781677,2.2947235-.463501,3.7897606-6.6410217-.7420349-9.9902649-1.0317078-16.6774292-1.3673553.5446777-10.1989365.8343506-15.2870865,1.425354-25.47435,7.058197.3710175,10.5929565.6606903,17.6277771,1.4487038l-.4520264,3.7897606c-4.7632751-.5446777-7.1506653-.7533531-11.9256287-1.1010284-.2201843,2.6310806-.3244934,3.9524574-.5100098,6.5828323,4.415802.313015,6.6061707.4986992,11.0102844.9970436-.1855164,1.5067101-.2550049,2.236721-.428833,3.7664185"/>
      <path class="d" d="M261.6894532,56.8818054c1.4603882,1.1360435,3.8360901,2.3063965,6.4089966,2.7930717,3.1870728.6260262,5.2964783-.3589935,5.7369995-2.3870392.4055176-1.9010696-.7650146-3.3381042-4.125946-5.1578255-4.4041138-2.3870392-7.1161804-5.0761261-6.5018311-8.6805534.695343-4.1604271,5.3311462-6.6408386,11.844635-5.3194618,3.2450867.6486626,5.4588013,1.7617188,6.8495178,2.7697258-.8693542,1.344368-1.2865295,2.0283966-2.1094055,3.3724098-.9735107-.718338-2.874054-1.8773727-5.6324768-2.4220543-3.4074402-.6836777-5.1574707.5913658-5.4471436,2.0864029-.3593445,1.9470482,1.1820374,3.1290741,4.7401123,5.1921349,4.6242981,2.6423988,6.4670105,5.3774643,5.6209717,8.9585533-.9620361,4.0101089-5.0299683,6.6525078-12.0184937,5.3194618-2.908905-.5330086-5.771637-1.7960243-7.1740112-2.8857384.7185059-1.4603767,1.0895386-2.1903877,1.8080444-3.6390915"/>
      <path class="d" d="M293.5494691,42.8931084c-2.7235718,9.8395882-4.0912781,14.7653961-6.7915039,24.6049843-1.9587097-.5216904-2.932251-.7766953-4.9026489-1.2746887,2.4919128-9.8862762,3.7666016-14.8350716,6.3164978-24.720993,2.1555481.5446777,3.2335815.8113594,5.377655,1.3907013"/>
      <path class="d" d="M313.9239808,75.1819534c-1.8892212-.0809937-5.4239807-.5446777-8.9009094-1.7500458-4.4504395-1.5647125-7.5332031-3.6854248-9.4107361-6.663826-1.7615356-2.7934265-2.2252197-6.432518-1.1242065-10.1179428,2.2947388-7.75354,10.3959351-10.8942871,19.9573669-7.5215187,3.5579224,1.2513466,6.0959778,2.9320717,7.1971741,3.9517517-1.0083618,1.2170372-1.5183716,1.8313942-2.5033875,3.0484352-1.3211975-1.1823769-3.0365906-2.3067513-6.0498352-3.3844376-6.0961609-2.1440544-11.4041138-.3940086-13.1773376,5.2848015-1.7617188,5.516819.9967041,9.9442787,6.5249939,11.8909798,1.7962036.62603,3.1174011.8693619,3.8475952.8576889.8925171-2.4107361,1.3445435-3.5927582,2.2252197-6.0031357-1.9238892-.6957016-2.8857422-1.0433769-4.8212891-1.7153854.4868469-1.3910522.7301941-2.0860481,1.2285461-3.4767494,3.9289246,1.3556862,5.8759766,2.0856972,9.7469177,3.5924034-1.8892212,4.8097992-2.8510742,7.2205353-4.7401123,12.0069885"/>
      <path class="d" d="M333.3249818,56.8588142c-2.4222412,5.4471436-3.6159363,8.1592216-6.0266724,13.6060066-2.0048828,4.5664597-.8113708,7.6028671,2.3642273,9.0515747,3.4074402,1.5876999,6.4323425.5100174,8.6692505-3.9521027,2.6422119-5.354126,3.9635925-8.008194,6.6059875-13.3280106,2.0397034.9850197,3.0480652,1.4950371,5.0531311,2.526741-2.7120667,5.1687927-4.0564575,7.7531815-6.7568359,12.9223328-3.6274109,6.9768448-9.178894,7.9852066-15.309906,5.1687927-5.8874817-2.7000504-8.5184021-7.3245163-5.4122925-14.7070389,2.2483826-5.3891373,3.3840942-8.1128845,5.6558228-13.4786797,2.0628967.8460197,3.105896,1.2863617,5.1572876,2.1903877"/>
      <path class="d" d="M355.5190736,68.1120911c2.0630493.7420349,4.9024658,2.0747299,7.7303772,3.7204361,3.8709412,2.2370758,6.1193237,4.3691025,7.1275024,6.6988449.8113708,1.9007187.6492004,3.9174423-.5561829,5.7484818-1.7963867,2.7700806-5.2154846,3.2334137-8.0432129,2.4453964l-.0696716.1160126c1.4952087,1.7153854,1.5647278,3.9054184.8576965,6.3278275-.9503479,3.1407471-1.8890381,6.0731735-1.9702148,7.2088623-1.7732239-1.1590347-2.6772461-1.7153854-4.4851074-2.8394012.0463257-.8693619.5795288-3.0250931,1.5413818-6.1194992,1.0198669-3.279747.3825073-4.9137802-2.213562-6.5251846-.9271851-.5559998-1.4023743-.8226776-2.3527222-1.3556824-2.0862122,3.6390915-3.1292419,5.4584579-5.2153015,9.097908-1.7848816-1.0083618-2.6889038-1.5067062-4.4736328-2.4804077,4.8327942-8.8312225,7.2666931-13.223671,12.1226501-22.0435791M354.8005372,80.5944366c1.1125183.6490173,1.6688843.9620285,2.7815857,1.5993729,3.1755981,1.8540268,5.9686584,1.6457062,7.3130188-.5100174,1.4602051-2.3414154.1855164-4.7167816-2.9669189-6.548172-1.5298767-.9040222-2.5729065-1.3673553-3.1060791-1.5413742-1.6225281,2.8047409-2.4222412,4.2071152-4.0216064,7.0001831"/>
      <path class="d" d="M382.9171143,84.61586c-5.8991699,8.3328781-8.8545532,12.5053329-14.7190552,20.8611984-1.71521-1.205368-2.5843811-1.7847061-4.2995911-2.9437408,5.6904907-8.4718781,8.5647278-12.7019806,14.2785339-21.1395493,1.9120483,1.2633743,2.8508911,1.924057,4.7401123,3.2220917"/>
      <path class="d" d="M376.0095826,104.8280487c.8460083,1.7040634,2.5033875,3.894455,4.6589355,5.5514832,2.665741,2.0630569,5.0299683,2.1907425,6.3513489.5796967,1.2166748-1.5180283.7880249-3.3727646-1.483551-6.5828323-3.0017395-4.2417755-4.2882996-7.9275513-2.0979004-10.8826141,2.4802246-3.3727646,7.8461914-3.3961105,13.2818604.8806839,2.7004089,2.1323853,4.2301025,4.2071152,5.0762939,5.7831421-1.4023743.7996902-2.0862122,1.1936951-3.4537659,2.0050583-.6026917-1.1240158-1.8195496-3.0597534-4.1374512-4.8678055-2.8164062-2.2713852-5.0068054-1.9237061-5.9223328-.741684-1.2053528,1.5530396-.3130188,3.3724136,2.0513916,6.9075165,3.0595703,4.60112,3.5347595,7.9505463,1.158844,10.7666016-2.6772461,3.1060867-7.6260376,3.5000916-13.4786682-.9966888-2.4223938-1.8773727-4.5084534-4.3691025-5.2501526-6.0034943,1.2980347-.9733505,1.9355469-1.4487076,3.2450867-2.3990631"/>
      <path class="d" d="M410.442505,126.0022659c-3.3031006-3.2564011-4.9836426-4.8557739-8.3793945-7.9501877-2.0282288,2.2133789-3.0595703,3.3260803-5.0646362,5.5281372,3.6737671,3.3727646,5.5166321,5.0877991,9.0862427,8.6575623-1.1010437,1.0776825-1.6457214,1.6223602-2.7350769,2.6774139-5.0299683-5.0301514-7.6145325-7.4292068-12.9110107-12.0536728,6.7451782-7.6721878,10.1177673-11.4849472,16.8861084-19.1228256,5.5863037,4.8907928,8.3330688,7.4292068,13.6758728,12.7369995-1.1010437,1.0893555-1.6342163,1.6343918-2.7119141,2.7120743-3.6160889-3.6044312-5.4588013-5.3544769-9.2139282-8.7502289-1.7730408,1.935379-2.6655579,2.8974075-4.4619446,4.8211136,3.4535828,3.141098,5.145813,4.7751389,8.5067139,8.0669098-1.0776978,1.0776825-1.6223755,1.6106949-2.677063,2.6767044M411.1493531,101.9539795c.8460083-.9733505,2.4802246-.8693619,3.7085876.2203445,1.1938782,1.0776825,1.4025574,2.6077347.5100098,3.5810852-.8226624.8923569-2.3990479.8923569-3.6390991-.2433395-1.217041-1.0893555-1.390686-2.665741-.5795288-3.5580978M418.207367,108.3978195c.8925171-.9273682,2.5033875-.7996902,3.7204285.3360062,1.1590271,1.1360474,1.3327026,2.7007599.3940125,3.6390915-.8460083.8460236-2.4222412.7883682-3.6390991-.3706665-1.1821899-1.1356888-1.3213806-2.7350693-.4753418-3.6044312"/>
      <path class="d" d="M317.6557313,110.4258575v48.989624h-5.122467c-3.9406128-15.4027405-8.9935608-25.8683624-15.1593933-31.3964996-6.1539917-5.5511246-14.0118713-8.3328781-23.5501099-8.3328781-7.2435303,0-13.1078491,1.947052-17.5466309,5.818161-4.4621277,3.8707504-6.6873474,8.1705399-6.6873474,12.8530045,0,5.8641357,1.6573792,10.8939362,4.9836426,15.0897217,3.198761,4.2994232,9.7237549,8.8425446,19.5748291,13.6636658l22.6925964,11.1496429c21.0235291,10.3375854,31.5353088,24.0019531,31.5353088,40.9577332,0,13.0843201-4.8907776,23.6196136-14.6723633,31.6278076-9.8049316,8.0202179-20.7570496,11.9953156-32.8798523,11.9953156-8.6922302,0-18.6478271-1.5530396-29.831604-4.6937866-3.4190979-1.0543518-6.2238464-1.5760193-8.4025574-1.5760193-2.3875732,0-4.2534485,1.3677063-5.5863037,4.091095h-5.1341248v-51.3419952h5.1341248c2.8973999,14.6490326,8.4488831,25.693985,16.6311035,33.1345062,8.182373,7.4175415,17.3497925,11.13797,27.5022278,11.13797,7.1391907,0,12.9804993-2.1210632,17.4772949-6.3628387,4.5082703-4.2417755,6.7683411-9.3412476,6.7683411-15.3097229,0-7.2205353-2.5033875-13.2816772-7.5333557-18.195816-5.0297852-4.9254456-15.0549011-11.137619-30.0749512-18.6824799-15.0318909-7.5448608-24.8714905-14.3480377-29.530426-20.4091949-4.6706238-5.9688263-6.9885254-13.5023804-6.9885254-22.5999298,0-11.8216553,4.0099182-21.7192535,12.0299683-29.6811066,8.0315247-7.9505463,18.4274902-11.9259949,31.1644897-11.9259949,5.6094971,0,12.377655,1.205368,20.3630371,3.6161041,5.2849731,1.5647125,8.8080444,2.3640442,10.5697632,2.3640442,1.6457214,0,2.9554138-.3819809,3.8824158-1.1123505.9271851-.730011,2.0165405-2.3410568,3.2684326-4.8678055"/>
      <path class="d" d="M176.436081,218.7426758h-46.6715546l-11.125946,14.3480377c-3.6854248,4.7747803-6.1309967,8.7272491-7.3478546,11.8213043-1.5993805,4.1377869-1.2863617,7.1625214.9503632,9.1208954,1.2980347,1.1707001,5.2733002,2.0283966,11.9373016,2.6077423l-1.5528717,4.0217896h-43.9479828l1.564537-4.0217896c5.0299683-.7763367,9.7934341-2.9897156,14.2437057-6.571167,4.4504547-3.5810852,11.0912933-10.9869537,19.9225159-22.1938934l92.9722595-117.4497452h1.8427124l.6836853,120.7065048c.1043396,11.4269409,1.0430298,18.6358032,2.8047485,21.591217,1.3443604,2.2367249,3.9519348,3.5581055,7.8345337,3.9170837l-1.5647125,4.0217896h-63.9283142l1.5762024-4.0217896h2.6309052c5.1341248,0,9.0399017-.7763367,11.7403107-2.3987122,1.8775482-1.1590271,3.2565765-2.8164215,4.0911102-4.9951324.510025-1.2867126.8460236-2.6194153.9503632-3.9984436.1506653-.6490173.2316589-3.3610992.26651-8.1592255M176.2275849,210.7344818l.0578308-50.6933289-39.9958801,50.6933289h39.9380493Z"/>
    </g>
    <g>
      <path class="d" d="M197.2626343,377.9960022l6.2236633,1.6340332-.1853333.3128357c-.243515-.0811768-.5331879-.0928345-.8230286-.0231628-.254837.0463257-.463501.196991-.6025085.4290161l-4.2071075,7.7648621c-.1970062.3823242-.2433319.7533569-.1389923,1.0546875.1389923.3013306.4750061.6141663,1.0083618.9040222l.5793457.2896729-.2201691.4056702-5.9454956-3.2333984.2086792-.3941956.5561676.3013306c.9966888.5446777,1.680542.4750061,2.0513916-.1738281l3.8477631-7.092865c.231842-.4520264.0811768-.8345337-.475174-1.1358643-.26651-.1504822-.973526-.3593445-2.0860443-.6490173"/>
      <path class="d" d="M218.634018,388.9595947c-.8576965.4403381-1.7268829.730011-2.5845795.8693542-.8460236.1504822-1.71521.1504822-2.5614014.0115051-1.425354-.2316589-2.4453888-.7070312-3.1059113-1.3790283-.6606903-.6955261-.9155273-1.4259033-.7881927-2.1905518.1506653-.9620361.8925323-1.7153931,2.2368927-2.2483826,1.3211975-.5446777,2.7352448-.6838684,4.2071075-.4173584,1.668869.2550049,2.9552307.9271851,3.882431,2.0282288.9156952,1.0548706,1.2631989,2.4222412.9966888,3.9982605-.1855164,1.2518921-.7301941,2.3295593-1.5762024,3.2684326-.8460236.9040222-1.8773804,1.5878906-3.1174011,2.0282288-1.205368.4173584-2.5150757.5098267-3.882782.2896729-1.0428467-.1621704-2.0280457-.463501-2.908905-.9388733l.4983521-3.0362244.9040222.1504822c-.1275024.9040222.0231628,1.6690369.4405212,2.3063965.4171753.6490173,1.0313568,1.02005,1.8427124,1.1473694,1.3211975.2434998,2.4800568-.1273193,3.5115814-1.0778503,1.0198517-.9503479,1.657196-2.2367249,1.912384-3.8362732.034668-.2200012.0809937-.53302.0926666-.9733582M215.6554414,383.9528198c-1.0083618-.1619873-1.8543854-.0115051-2.4800568.4407043-.6375275.4750061-1.0315247,1.0545044-1.1590271,1.8193665-.1043396.7998657.0809937,1.4718628.5795135,2.0513916.5215149.5793457,1.240036.9503479,2.1323853,1.0893555.8925323.1506653,1.657196.0231628,2.2947235-.3940125.6492004-.428833,1.0315247-1.0083618,1.1590271-1.7963867.1506653-.8228455-.0579987-1.5298767-.6026764-2.1325684-.5331879-.5911865-1.1822052-.927002-1.9238892-1.0778503"/>
      <path class="d" d="M226.9090729,384.1846619l.6026764-.0924988.0114899.0693359c.0463257.2320251.2781677.3013306.741684.2320251l9.5497284-1.5880432.0813599.5563354c-1.9587097,2.4804077-3.1872559,4.6242981-3.6741028,6.4206543-.4866638,1.8312073-.6256714,3.6274109-.3823242,5.4006348l-2.3063965.3826904c-.1390076-1.4023743-.0811768-2.6194153.1740112-3.662262.2548218-1.0432129.7880249-2.1559143,1.5877075-3.3379211.8111877-1.1938782,1.3790283-1.9819031,1.7268677-2.399231l1.4138794-1.750061-6.6871643,1.1011963c-.7765198.1390076-1.2748718.3361816-1.4952087.5795288-.2084961.2433472-.2896729.6371765-.2201691,1.1125183l-.6141815.1041565"/>
      <path class="d" d="M244.0500031,381.3800964l4.7634583-4.322937.1621704.3128357c-.2086792.1853333-.3593445.4055176-.463501.660675-.1159973.2666931-.0928345.5331726.0461426.7648621l4.2071228,7.7533569c.2203369.3941956.4751892.6260376.8113708.684021.3243408.0694885.7531738-.0580139,1.3211975-.3478394l.5331726-.3013306.2084961.3710327-5.9339905,3.2335815-.1968384-.3710327.5561829-.3130188c1.0083618-.5446777,1.3096924-1.1473694.9620361-1.8195496l-3.859436-7.069519c-.2433472-.4638672-.6490173-.5333557-1.2168579-.2320251-.26651.1508484-.8111877.6141663-1.657196,1.3908691"/>
    </g>
  </g>
  <g>
    <g>
      <path class="f" d="M177.7109528,305.1436157c4.1607819.8110046,7.5102081-3.5000916,10.8711243-5.6441345,1.1936951.8343506,2.2832336,1.7730408,3.0480804,3.0480652,4.7632904-1.217041,11.9604797-4.9141235,18.4738159-5.4354858,4.589447-.3943481,6.9190063.730011,8.2635498,3.928772.4520111-2.8510742,3.8475952-3.6854248,7.3941956-3.7204285,12.6673126-.1503296,24.9523163,7.4638672,36.727417,8.4839172.8808594.208313.8808594,1.2976685,1.5298767,1.750061.9967041.2896729,2.3179016-.4060364,3.4769287,0,1.4716797.4866638,3.5115967,4.8327942,4.7864685,6.7218323,10.4654541,15.6343994,22.3679199,32.6246643,31.9526672,47.8187256-2.7815857.9967041-6.8148499.7880249-10.0019226.6605225-15.4257202-.6719971-32.1148376-.3130188-47.8304138-.6605225,4.3460999,2.5614014,9.3644104,4.4154358,11.7518005,8.9355774-2.9554138-3.0829163-9.3180847-6.0496521-16.5267639-5.4586487-2.5729065,2.1903992-2.2250366,7.3476868-3.6970825,10.6624451-.4171753-.5215149-.2896729-2.3063965,0-2.8164062-1.158844-1.8890381-2.2715454-3.662262-3.9172668-5.4354858-.8575134-.961853-3.4422607-4.0564575-4.7864685-4.3460999-1.4255371-.3246765-3.0480804.7418518-4.7749634.8460083-3.3725891.2433472-8.263382-.2201843-8.9125671-3.0364075-24.6626282.196991-47.2045593,2.5148926-72.1685333,2.3875732,8.263382-16.8746033,16.6311035-33.6563721,24.9988098-50.4263-.973526-2.8280945-1.205368-4.2654724-1.0778656-7.3945618,3.6739349-.1503296,5.7484894-.3130188,8.6805573-.6490173-8.9935608.1159973-17.6509552,1.4950256-25.4391632,1.3096924.7418671-1.6920471,2.8625641-2.2830505,4.3577881-3.2567444.463501-.3359985.8460236-.7996826,1.3095245-1.0893555,1.5647125-1.0083618,3.164093-1.7730408,4.7634583-2.8277283,4.1605988-2.7584229,9.1442413-5.841156,13.4903564-8.7038879,10.4884338-.5676575,18.9953156-2.144043,27.618042-2.1673889-2.9207458,3.0484314-6.6408386,5.2964783-10.2221069,8.0432129-2.4337311,1.8777161-5.1457977,3.882782-7.8345337,5.8761597-1.9007111,1.390686-3.2104187,2.642395-6.3048401,2.5960693"/>
      <path class="f" d="M265.108368,352.3131409c-3.627594-.6488342-7.3593445-1.680542-10.8711243-1.947052-7.788208-.6258545-16.039917-.26651-22.3910828,1.0893555.5563354,1.5995483,1.2400208,2.8742371,2.6077271,3.2567444,1.3095398.3361816,2.9783936-.0694885,4.3460999,0,5.3079529.2201843,10.627594.463501,15.8777466.8576965,5.4354858.4173584,10.1175842,1.3441772,14.7767029,1.9702148,10.3264465,1.3560486,20.8962097,1.6803589,31.315155,2.1673889-.5446777-2.6774292-2.4568787-4.7402954-3.928772-6.9538574-9.3529053-14.1856995-18.9491577-28.4410706-28.2555542-42.3832703-.8460083-1.2750549-1.71521-2.5843811-3.7085876-1.9587097-.0696716,1.1360474.9733582,1.738739,1.5296936,2.6077271,9.3644104,14.5795288,19.0418396,28.9509277,28.2670593,43.4726257-7.0580139-2.3873901-14.7883911-4.4621277-22.8199158-6.7451782-7.950531-2.2367249-16.4224243-4.9487915-25.4508362-4.3344421-5.2037964.3359985-9.3180847,1.6455383-12.8296509,3.4652405-.9040222.4750061-2.9439087.8692017-2.5960693,2.3875732,1.1008606.0231628,2.0743713-.6375122,3.0364075-1.0778503,3.2450867-1.4718628,6.7566833-2.5847473,11.0912781-2.8280945,4.4967957-.2548218,8.7270508.8925171,13.0498352,1.9588928,10.0946045,2.4683838,20.5252075,4.7979431,30.4227905,6.9538574,2.0282288.440155,4.2302856.5793457,6.0961609,1.5180359-11.45047-2.3988953-24.3497925-5.3079529-35.6495972-8.0432129-4.2187805-1.0196838-8.3328857-2.1787109-12.6211548-2.1670532-4.7401123.011322-9.0979004,1.3673706-12.1691589,2.8160706-1.0661926.4983521-2.6655579.7068481-3.0480652,1.9702148.3593445.8228455,1.0546875-.1391907,1.3211975-.2201843,4.0796204-1.4718628,9.0632324-2.6887207,14.348053-2.8277283,6.0496521-.1508484,11.8909912,1.657196,16.9439392,2.8277283,10.9637756,2.5148926,22.298584,4.6242981,32.3931885,7.1855164-7.7651978-1.750061-15.8779297-3.1407471-24.1412964-5.0183105-8.1475525-1.8542175-16.1790771-4.7979431-24.546814-4.7747803-5.9454956,0-11.7286377,1.2168579-15.8779297,3.6969299,17.7206421-3.7780762,34.9892578,1.1127014,49.5689697,4.1261292,5.2964783,1.0776978,10.6739502,1.8193665,15.8662415,3.0362244-10.2801208-1.1356812-21.8348999-4.2995911-31.9526672-6.0844727"/>
      <path class="f" d="M189.8916016,348.395874c4.1839447-.9735107,8.1360474-2.3642273,12.401001-2.6075745,6.5250092-.3593445,12.2849884,1.518219,16.9441071,4.1489258,0,.1159973.0461578.2434998.2201691.2086792.0811768-.8806763-.3825073-1.2168579-.2201691-2.178894-4.4389496-3.0827332-10.6277771-4.4154358-17.6047974-3.9056091-4.0679321.2781677-8.0430298,1.7617188-12.1806488,2.8162231-12.2734833,3.0942383-25.3118286,5.9801636-36.9594727,8.2635498,6.9770203-14.8463745,13.9076996-29.7159424,20.8730469-44.5621643-1.2168579.1506653-1.6340332,1.1010437-2.8279114,1.2980347-7.6838684,16.4919128-15.727066,32.6826782-23.4689331,49.1282654,5.5166473.8460083,10.6507721-.289856,15.0085602-1.0778503,7.1276855-1.2748718,14.058197-2.5960693,21.2900391-3.6969299,10.0136108-1.5298767,20.4325256-.8345337,32.3815155-1.0893555,1.4372101,2.1902161,3.4769287,3.7779236,7.6260376,3.2564087-.8925323-1.4255371-3.1872559-3.3492432-3.4886017-6.0844727-7.278183-1.4718628-16.2949219-2.2832336-24.3381348-1.2978516-3.4886017.4286804-7.1160126,1.3210144-10.6507721,1.9585571-10.7089539,1.9122009-21.5105743,5.087616-32.1845093,5.8528137,11.3579712-1.5647278,22.9010925-4.2766113,33.9228821-6.2931519,3.8709412-.7070312,7.6492004-1.7615356,11.5084686-1.9588928,6.9653473-.3476868,15.495224-.0115051,21.0932159,1.3098755-4.7286224-2.399231-10.3147736-3.4885864-16.3067627-3.4885864-6.1076508,0-12.0877991,1.6340332-17.1641083,2.8394165-8.0665588,1.9238892-16.3529205,3.7550964-24.3497925,5.4239807-2.7467346.5795288-5.5283203,1.2865295-8.2635498,1.3096924,11.2999573-2.1905518,23.53862-4.7749634,34.5602264-7.3943787,3.905777-.9271851,7.8230438-2.120697,11.7403107-2.3987122,7.6608734-.5101929,14.4408875.9385071,19.134491,3.0593872.1043396.0348511.8925323,1.0778503,1.0780334.2201843,0-1.5067139-1.7617188-1.888855-2.8164215-2.3988953-3.5695953-1.7615356-8.0432129-3.0365906-12.8296661-3.0365906-4.4851074-.0231628-8.4837341,1.3443604-12.829834,2.375885-12.4124908,2.9787598-26.0535126,5.7948303-37.8169861,8.0432129,11.7056427-2.6192322,24.940979-5.308136,36.5189514-8.0432129"/>
      <path class="f" d="M220.3260651,349.7054138c.3245087,5.0533142,3.2219238,7.324707,6.0961609,9.7932434,4.3924561,3.7782593,8.2633667,7.6608582,11.7286377,12.1691589.8113708-2.7002258.7301941-5.5628052,2.8279114-6.7449951,3.0249023-1.71521,7.092865.6603394,10.0019226.6490173-5.6441345-3.2219238-13.1311951-5.4356384-17.6047974-10.0019226-.927002-.9388733-2.0280457-2.3527222-2.6192322-3.6970825-.4055176-.9388733-.3013306-1.9355469-1.0893555-2.8277283-2.642395,2.1322021-6.6523285,1.888855-9.3412476,0"/>
    </g>
    <g>
      <path class="h" d="M237.9302521,376.359375c-.0380859,0-.0742188-.0166016-.0976562-.046875-.4521484-.5654297-.3144531-2.296875-.0449219-2.8886719-1.2255859-1.9960938-2.2949219-3.6630859-3.8662109-5.3564453-.0908203-.1015625-.1992188-.2255859-.3222656-.3662109-1.0498047-1.1982422-3.234375-3.6923828-4.3984375-3.9423828-.7822266-.1757812-1.6474609.0859375-2.5615234.3652344-.7011719.2158203-1.4267578.4375-2.1796875.4833984-1.3554688.0976562-8.0981445.4042969-9.0175781-3.0351562-11.4238281.09375-22.5756836.6503906-33.3613281,1.1894531-12.4604492.6210938-25.3515625,1.2558594-38.7104492,1.1972656-.0429688,0-.0830078-.0224609-.105957-.0595703-.0224609-.0361328-.0249023-.0820312-.0058594-.1201172,8.5893555-17.5400391,17.6728516-35.7441406,24.9760742-50.3808594-.9829102-2.8652344-1.1923828-4.3261719-1.0673828-7.390625.0014648-.0390625.0205078-.0722656.0493164-.0947266-1.1621094.0859375-2.3149414.1767578-3.456543.2675781-4.6494141.3691406-9.0390625.7177734-13.2294922.6171875-.0415039-.0009766-.0800781-.0224609-.1025391-.0576172s-.0258789-.0791016-.0087891-.1171875c.5512695-1.2578125,1.8237305-1.9179688,3.0541992-2.5556641.4814453-.25.9360352-.4853516,1.3496094-.7548828.1962891-.1425781.3867188-.3183594.5712891-.4882812.2329102-.2148438.4741211-.4365234.7402344-.6035156.7470703-.4814453,1.5161133-.9150391,2.2602539-1.3349609.8193359-.4628906,1.6665039-.9414062,2.5004883-1.4912109,2.1542969-1.4277344,4.5771484-2.9736328,6.9204102-4.46875,2.199707-1.4033203,4.4741211-2.8535156,6.5698242-4.234375.0185547-.0117188.0400391-.0195312.0620117-.0205078,4.5825195-.2480469,8.7548828-.6855469,12.7895508-1.1083984,5.1303711-.5380859,9.9760742-1.0458984,14.8349609-1.0595703h.0004883c.0498047,0,.0952148.0292969.1147461.0761719.0200195.0458984.0102539.0986328-.0244141.1357422-2.0429688,2.1318359-4.4350586,3.8457031-6.9677734,5.6601562-1.0737305.7685547-2.1835938,1.5634766-3.2685547,2.3964844-1.2119141.9345703-2.5039062,1.9091797-3.8212891,2.8935547.1362305-.09375.2729492-.1835938.409668-.2714844.043457-.0263672.097168-.0244141.1391602.0029297.9697266.6787109,2.1850586,1.6298828,3.034668,3.0068359,1.644043-.4277344,3.5981445-1.1542969,5.6655273-1.921875,3.9794922-1.4775391,8.4907227-3.1533203,12.7402344-3.4941406,4.4814453-.3818359,6.831543.6416016,8.2314453,3.6494141.5913086-2.2109375,3.1489258-3.3984375,7.4345703-3.4414062.1230469-.0009766.2470703-.0019531.3701172-.0019531,6.8779297,0,13.6728516,2.2529297,20.2490234,4.4326172,5.5800781,1.8505859,10.8505707,3.5976562,16.1201019,4.0537109.5820312.1367188.8144531.5839844,1.0400391,1.0166016.1513672.2929688.2949219.5693359.5341797.7441406.4345703.1191406.9414062.0449219,1.4794922-.0351562.6542969-.0957031,1.3339844-.1962891,1.9833984.03125,1.0996094.3632812,2.4384766,2.6835938,3.6210938,4.7304688.4472656.7763672.8710938,1.5097656,1.2285156,2.0390625,3.3457031,4.9990234,6.9091797,10.2392578,10.3554688,15.3076172,7.4121094,10.9023438,15.0771484,22.1757812,21.5986328,32.5146484.0205078.0322266.0253906.0712891.0126953.1074219-.0126953.0351562-.0400391.0634766-.0761719.0761719-2.6943359.9667969-6.5615234.8095703-9.6650391.6845703l-.3837891-.015625c-9.1513672-.3994141-18.8964844-.4355469-28.3212891-.4707031-6.2851562-.0234375-12.7783203-.0478516-19.0224609-.1796875.7724609.4433594,1.5683594.8720703,2.3417969,1.2880859,3.5048828,1.8867188,7.1298828,3.8388672,9.0390625,7.453125.0292969.0556641.0136719.1230469-.0371094.1601562-.0517578.0351562-.1201172.0302734-.1630859-.0146484-2.8935547-3.0166016-9.2529297-5.9951172-16.3867188-5.4238281-1.5273438,1.328125-2.0048828,3.8066406-2.4658203,6.2050781-.2939453,1.5244141-.5966797,3.1015625-1.1679688,4.3867188-.0175781.0400391-.0546875.0673828-.0986328.0732422-.0048828.0009766-.0107422.0009766-.015625.0009766h.0000153ZM228.653885,363.4501953c.2021484,0,.4033203.0195312.6005859.0644531,1.2431641.2675781,3.4648438,2.8037109,4.5332031,4.0224609.1220703.1396484.2304688.2626953.3193359.3623047,1.6005859,1.7246094,2.6826172,3.4189453,3.9296875,5.453125.0234375.0390625.0244141.0878906.0019531.1269531-.2402344.4248047-.3525391,1.8261719-.1210938,2.4658203.4951172-1.2148438.7763672-2.6767578,1.0488281-4.09375.4726562-2.4570312.9619141-4.9960938,2.5800781-6.3740234.0195312-.0175781.0449219-.0273438.0712891-.0302734,6.734375-.5546875,12.8046875,2.0361328,15.9775238,4.8701172-1.9628906-3.0654297-5.2753906-4.8496094-8.4873047-6.578125-.9169922-.4941406-1.8642578-1.0039062-2.7685547-1.5371094-.0488281-.0283203-.0722656-.0869141-.0566406-.1416016s.0537109-.0859375.1230469-.0908203c6.3896484.1416016,13.0556641.1660156,19.5019531.1904297,9.4277344.0351562,19.1748047.0712891,28.3310547.4707031l.3828125.015625c3.0302734.1230469,6.7822266.2744141,9.4238281-.6181641-6.5019531-10.2988281-14.1308594-21.5195312-21.5107422-32.3740234-3.4462891-5.0683594-7.0097656-10.3095703-10.3554688-15.3085938-.3623047-.5371094-.7880859-1.2734375-1.2382812-2.0537109-1.1025391-1.9091797-2.4736328-4.2841797-3.484375-4.6181641-.59375-.2080078-1.2421875-.1132812-1.8671875-.0214844-.5742188.0839844-1.1152344.1630859-1.6054688.0224609-.0126953-.0039062-.0253906-.0097656-.0361328-.0175781-.2998047-.2089844-.4677734-.5322266-.6308594-.8457031-.2080078-.4003906-.4042969-.7783203-.8564453-.8847656-5.28125-.4570312-10.5654297-2.2089844-16.1591797-4.0634766-6.5566406-2.1738281-13.3339844-4.4199219-20.1708984-4.4199219-.1230469,0-.2451172,0-.3671875.0019531-3.0615234.0302734-6.8076172.6826172-7.2719727,3.6152344-.0087891.0546875-.0532227.0976562-.1083984.1044922-.0595703.0126953-.1088867-.0234375-.1303711-.0751953-1.3286133-3.1611328-3.6074219-4.2460938-8.1376953-3.8525391-4.2158203.3369141-8.7094727,2.0058594-12.6738281,3.4785156-2.1113281.7841797-4.1049805,1.5253906-5.7802734,1.953125-.0522461.0166016-.109375-.0097656-.1381836-.0566406-.8076172-1.3476562-1.9873047-2.2890625-2.9433594-2.9628906-.8886719.5751953-1.7636719,1.2880859-2.6884766,2.0419922-2.5195312,2.0527344-5.1240234,4.1738281-8.2036133,3.5751953-.0634766-.0126953-.1069336-.0712891-.1005859-.1357422.0068359-.0644531.0605469-.1123047.1245117-.1123047.0673828.0009766.1142578.0009766.1699219.0009766,2.6176758,0,3.887207-.9501953,5.4868164-2.1464844.1865234-.1396484.3774414-.2822266.5742188-.4257812l.425293-.3154297c2.5087891-1.859375,5.1025391-3.7822266,7.4067383-5.5585938,1.0883789-.8349609,2.2001953-1.6318359,3.2753906-2.4023438,2.4379883-1.7460938,4.7451172-3.3984375,6.7260742-5.4169922-4.7470703.0332031-9.4936523.5302734-14.512207,1.0566406-4.0283203.4228516-8.1928711.859375-12.7685547,1.1083984-2.0893555,1.3759766-4.3540039,2.8203125-6.5444336,4.2177734-2.3427734,1.4941406-4.7646484,3.0400391-6.9174805,4.4667969-.8413086.5546875-1.6923828,1.0351562-2.5151367,1.5-.7412109.4179688-1.5073242.8505859-2.2490234,1.3291016-.2480469.1542969-.4702148.359375-.7050781.5751953-.1894531.1748047-.3857422.3554688-.5986328.5107422-.4296875.2792969-.9111328.5292969-1.3769531.7705078-1.1328125.5869141-2.3022461,1.1933594-2.8583984,2.2626953,4.1152344.0849609,8.4399414-.2587891,13.0107422-.6201172,3.9638672-.3144531,8.0625-.6396484,12.2304688-.6933594h.0014648c.065918,0,.1206055.0507812.1245117.1171875.0043945.0664062-.0439453.1240234-.1103516.1318359-2.9936523.3427734-5.0922852.5009766-8.5742188.6455078-.1142578,2.9667969.1030273,4.4082031,1.0756836,7.2333984.0107422.0322266.0087891.0664062-.0063477.0966797-7.2822266,14.59375-16.3393555,32.7451172-24.9111328,50.2470703,13.2866211.0703125,26.1025391-.5791016,38.4975586-1.1982422,10.8193359-.5400391,22.0068359-1.0996094,33.4707031-1.1904297.0522461-.0009766.1098633.0390625.1225586.0966797.5986328,2.5947266,5.1079102,3.2080078,8.7817383,2.9394531.7246094-.0439453,1.4355469-.2617188,2.1230469-.4716797.7255859-.2226562,1.4199219-.4355469,2.0878906-.4355469h.0000153ZM172.3477326,305.5976562c-1.4731445.0673828-2.9350586.1591797-4.3828125.2617188,1.684082-.0742188,3.046875-.1542969,4.3828125-.2617188ZM186.7730256,300.6582031c-.753418.5595703-1.5087891,1.1201172-2.2568359,1.6738281l-.4262695.3164062c-.1967773.1435547-.3862305.2861328-.5727539.4248047-.769043.5761719-1.4882812,1.1142578-2.3388672,1.5136719,1.5927734-.6748047,3.0878906-1.8945312,4.5541992-3.0888672.3525391-.2880859.6982422-.5693359,1.0405273-.8398438Z"/>
      <path class="h" d="M300.7691041,359.8320312h-.0058594c-1.4511719-.0683594-2.90625-.1328125-4.3623047-.1972656-8.8837891-.3945312-18.0703125-.8027344-26.9628906-1.9707031-1.5-.2021484-2.9726562-.4296875-4.53125-.6708984-3.2236328-.4990234-6.5576172-1.015625-10.2392578-1.2978516-5.4462891-.4091797-11.0488281-.6582031-15.8720703-.8583984-.5292969-.0292969-1.0830078.0166016-1.6728516.0625-.9228516.0712891-1.8759766.1455078-2.7001953-.0664062-1.4921875-.4169922-2.1767578-1.8496094-2.6943359-3.3369141-.0117188-.0341797-.0087891-.0712891.0087891-.1025391s.0478516-.0537109.0830078-.0605469c3.2558594-.6953125,7.0302734-1.1357422,11.0283203-1.3085938-3.6982422.1201172-7.4355469.53125-11.1962891,1.3330078-.0595703.0146484-.1210938-.0185547-.1425781-.0761719-.0224609-.0566406,0-.1220703.0517578-.1533203,1.1806641-.7050781,2.5029297-1.3173828,3.9433594-1.8300781-.9892578.2900391-1.9755859.6123047-2.9560547.9648438-.0507812.0166016-.1533203.1005859-.2441406.1738281-.2412109.1982422-.5410156.4433594-.8388672.3720703-.1660156-.0390625-.2978516-.171875-.3945312-.3925781-.0117188-.0273438-.0136719-.0576172-.0048828-.0859375.1425781-.4716797.4443359-.8046875.8193359-1.0595703-.2939453.0800781-.5849609.1201172-.9111328.1201172-.0566406-.0009766-.1064453-.0410156-.1191406-.0966797-.2998047-1.3115234,1.0302734-1.8476562,2.0019531-2.2392578.2460938-.0996094.4775391-.1933594.6572266-.2871094,3.9277344-2.0361328,8.140625-3.1738281,12.8808594-3.4804688,8.2724609-.5644531,15.984375,1.6328125,23.4404297,3.7578125.6875.1953125,1.3710938.390625,2.0517578.5820312,1.5908203.4521484,3.1689453.8955078,4.7333984,1.3359375,6.265625,1.7617188,12.1914062,3.4277344,17.7578125,5.2978516-5.0214844-7.8964844-10.2607422-15.8828125-15.3300781-23.6083984-4.1972656-6.3974609-8.5380859-13.0126953-12.7470703-19.5654297-.1689453-.2636719-.390625-.5087891-.6044922-.7460938-.4892578-.5429688-.9960938-1.1035156-.9453125-1.9365234.0029297-.0517578.0380859-.0957031.0878906-.1113281,2.0839844-.6552734,3.0205078.7607422,3.8496094,2.0068359,2.6796875,4.015625,5.3837891,8.0556641,8.0986328,12.1132812,6.6357422,9.9160156,13.4970703,20.1708984,20.1572266,30.2724609.3398438.5107422.7109375,1.0244141,1.0703125,1.5214844,1.2060547,1.6679688,2.453125,3.3935547,2.8759766,5.4755859.0078125.0371094-.0019531.0761719-.0273438.1054688-.0234375.0283203-.0585938.0439453-.0947266.0439453ZM238.4634553,354.5791016c.1162109,0,.2304688.0019531.3427734.0078125,4.8251953.2011719,10.4306641.4492188,15.8808594.8583984,3.691391.2832031,7.0292816.8007812,10.2577972,1.3007812,1.5576172.2412109,3.0283203.46875,4.5263672.6699219,8.8818359,1.1669922,18.0625,1.5742188,26.9404297,1.96875,1.4023438.0625,2.8037109.125,4.2011719.1894531-.4423828-1.9599609-1.640625-3.6171875-2.7998047-5.2207031-.3603516-.4990234-.7333984-1.0146484-1.0771484-1.5302734-6.6591797-10.1015625-13.5205078-20.3554688-20.15625-30.2714844-2.7148438-4.0576172-5.4179688-8.0976562-8.0976562-12.1123047-.84375-1.2705078-1.6416016-2.4677734-3.4833984-1.9335938-.0058594.6816406.4267578,1.1611328.8837891,1.6669922.2207031.2451172.4501953.4980469.6298828.7792969,4.2080078,6.5517578,8.5478516,13.1660156,12.7451172,19.5634766,5.1337891,7.8232422,10.4414062,15.9140625,15.5214844,23.9091797.0283203.0449219.0253906.1025391-.0068359.1445312-.0332031.0429688-.0908203.0585938-.1386719.0410156-5.6572266-1.9130859-11.6914062-3.6103516-18.0800781-5.4072266-1.5644531-.4394531-3.1435547-.8837891-4.734375-1.3359375-.6796875-.1914062-1.3642578-.3857422-2.0517578-.5820312-7.4335938-2.1181641-15.1201172-4.3105469-23.3554688-3.7480469-4.7050781.3037109-8.8857422,1.4326172-12.78125,3.4521484-.1904297.0996094-.4277344.1953125-.6796875.296875-.9091797.3671875-2.0351562.8203125-1.8710938,1.8544922.7871094-.0146484,1.5214844-.3876953,2.2324219-.7480469.2177734-.1103516.4335938-.2197266.6494141-.3183594,3.8535156-1.7480469,7.2880859-2.6240234,11.1367188-2.8398438,4.2207031-.234375,8.1083984.7275391,12.2294922,1.75l.8574219.2128906c10.8798828,2.6591797,21.9716797,5.1132812,30.4189453,6.953125.5615234.1210938,1.1474609.2216797,1.7148438.3193359,1.4980469.2568359,3.046875.5224609,4.4111328,1.2089844.0556641.0283203.0820312.09375.0615234.1523438-.0205078.0595703-.0810547.0976562-.1435547.0810547-11.4375-2.3955078-24.4326172-5.3271484-35.6533203-8.0439453-.5058594-.1220703-1.0107422-.2460938-1.5146484-.3701172-3.7412109-.921875-7.2773438-1.7929688-11.0117188-1.7929688h-.0654297c-5.3945312.0126953-9.90625,1.7617188-12.1152344,2.8037109-.2666016.1240234-.5556641.2275391-.8632812.3378906-.8935547.3193359-1.8173828.6494141-2.1054688,1.5107422.0595703.1201172.1279297.1904297.2041016.2089844.1796875.0322266.4345703-.1689453.6230469-.3232422.1289062-.1054688.2314453-.1894531.3242188-.2167969,4.7998047-1.7314453,9.7744141-2.7119141,14.3818359-2.8330078,4.9619141-.125,9.8554688,1.0830078,14.1640625,2.1494141.9765625.2412109,1.8984375.4697266,2.8105469.6806641,4.4335938,1.0175781,8.9814453,1.9794922,13.3789062,2.9101562,6.6875,1.4150391,13.0039062,2.7509766,19.0166016,4.2763672.0664062.0166016.1074219.0839844.0908203.1503906-.015625.0654297-.0839844.1074219-.1484375.0927734-3.7587891-.8466797-7.5175781-1.59375-11.4980469-2.3847656-4.1201172-.8183594-8.3798828-1.6640625-12.6435547-2.6328125-2.1875-.4980469-4.4023438-1.0839844-6.5439453-1.6503906-5.8046875-1.5351562-11.8066406-3.1220703-17.8818359-3.1220703h-.09375c-5.8789062,0-11.2128906,1.1640625-15.1308594,3.2910156,15.2050781-3.0322266,30.0146484.2001953,43.1083984,3.0546875,1.9892578.4335938,3.8691406.84375,5.7392578,1.2304688,2.1621094.4394531,4.3740234.8300781,6.5126953,1.2080078,3.0888672.5449219,6.2832031,1.1083984,9.3564453,1.828125.0644531.015625.1064453.078125.0947266.1435547-.0107422.0654297-.0703125.1152344-.1367188.1025391-6.3916016-.7060547-13.3066406-2.2021484-19.9941406-3.6494141-4.1835938-.9052734-8.1357422-1.7597656-11.9667969-2.4355469h-.0009766c-1.2119141-.2167969-2.4550781-.4804688-3.6572266-.7353516-2.3935547-.5078125-4.8691406-1.0332031-7.2011719-1.2099609-7.9121094-.6347656-15.9970703-.2509766-22.2158203,1.0566406.4892578,1.3740234,1.1396484,2.6708984,2.4755859,3.0439453.7822266.2001953,1.7148438.1269531,2.6171875.0585938.453125-.0351562.9179688-.0712891,1.359375-.0712891h.0000153ZM265.1294556,352.1904297c3.8359375.6767578,7.7900391,1.5322266,11.9765625,2.4375,5.7324219,1.2402344,11.6337891,2.5175781,17.2226562,3.2998047-2.2109375-.453125-4.4511719-.8486328-6.6386719-1.234375-2.140625-.3779297-4.3535156-.7685547-6.5205078-1.2099609-1.8710938-.3867188-3.7519531-.796875-5.7421875-1.2304688-4.4140625-.9628906-9.0224609-1.9677734-13.7763672-2.7607422,1.1474609.2431641,2.328125.4921875,3.4785156.6982422h0ZM289.9155884,354.6542969c1.1337891.2421875,2.2568359.4814453,3.3671875.7158203-.9726562-.3046875-2.0009766-.4814453-3.0058594-.6542969-.1191406-.0205078-.2402344-.0410156-.3613281-.0615234ZM268.7036744,351.3701172c1.1230469.2871094,2.2529297.5664062,3.3740234.8212891,4.2617188.9677734,8.5195312,1.8134766,12.6376953,2.6318359.5224609.1035156,1.0419922.2070312,1.5576172.3095703-2.9628906-.6523438-6.0009766-1.2949219-9.1191406-1.9550781-2.7792969-.5878906-5.6181641-1.1884766-8.4501953-1.8076172ZM246.4068146,345.4482422c-.4287109,0-.8603516.0117188-1.2949219.0361328-3.8154297.2138672-7.2226562,1.0830078-11.046875,2.8173828-.1308594.0595703-.2626953.1240234-.3945312.1894531.1796875-.0664062.3505859-.1337891.5107422-.2089844,2.2275391-1.0507812,6.7783203-2.8144531,12.2216797-2.8271484h.0664062c.6640625,0,1.3203125.0273438,1.9736328.0771484-.6738281-.0546875-1.3515625-.0839844-2.0361328-.0839844Z"/>
      <path class="h" d="M151.1411896,361.4306641c-1.3339844,0-2.6992188-.0888672-4.0922852-.3017578-.0390625-.0068359-.0727539-.0302734-.0913086-.0654297-.0185547-.0341797-.0195312-.0761719-.0029297-.1123047,3.5351562-7.5087891,7.1933594-15.0898438,10.7314453-22.421875,4.2094727-8.7236328,8.5625-17.7441406,12.7373047-26.7050781.0175781-.0371094.0522461-.0634766.0927734-.0703125.5556641-.0917969.9296875-.3515625,1.3261719-.6259766.4199219-.2910156.8540039-.5917969,1.5073242-.6728516.0458984-.0078125.0898438.0136719.1162109.0507812.0268555.0371094.03125.0849609.012207.1259766-3.1035156,6.6152344-6.2001953,13.234375-9.296875,19.8544922-3.7553711,8.0273438-7.637207,16.3251953-11.4711914,24.4853516,12.0605469-2.3701172,25.0874023-5.2851562,36.7104492-8.2148438,1.1503906-.2929688,2.3046875-.6240234,3.4204102-.9443359,3.0004883-.8613281,5.8339844-1.6738281,8.7827148-1.8759766,7.1171875-.5205078,13.234375.8378906,17.6845703,3.9277344.0395508.0273438.0600586.0751953.0517578.1230469-.0820312.4873047.0039062.8007812.0952148,1.1318359.081543.2978516.1660156.6054688.1264648,1.0380859-.0048828.0546875-.0458984.0996094-.0996094.1103516-.0605469.0126953-.1083984.0097656-.1494141.0009766.2783203.3066406.4580078.6884766.4580078,1.1865234-.0537109.2617188-.1557617.4033203-.3061523.4482422-.0419922.0136719-.0839844.0146484-.1269531.0146484-.0009766.0029297-.0019531.0068359-.003418.0097656-.0214844.0585938-.0834961.0888672-.1459961.0791016-2.3203125-.5478516-5.3378906-.9521484-8.6831055-1.1894531,3.1201172.2871094,6.2871094.7470703,9.3852539,1.3740234.0532227.0107422.0932617.0546875.0991211.1083984.2158203,1.953125,1.4755859,3.4960938,2.4882812,4.7353516.3779297.4628906.7353516.9003906.9824219,1.2958984.0234375.0361328.0253906.0810547.0078125.1201172-.0185547.0380859-.0556641.0654297-.0976562.0703125-4.5195312.5722656-6.4951172-1.4257812-7.7084961-3.2539062-3.5654297.0751953-6.996582.0654297-10.3164062.0576172-7.7006836-.0214844-14.9824219-.0410156-21.9794922,1.0292969-5.5771484.8486328-11.0908203,1.8496094-16.4233398,2.8173828-1.6147461.2929688-3.2338867.5869141-4.8637695.8789062-.3935547.0712891-.793457.1455078-1.1992188.2207031-2.9887695.5527344-6.2661133,1.1591797-9.7583008,1.1591797ZM147.2525178,360.90625c4.9335938.7226562,9.5351562-.1289062,13.6010742-.8808594.4067383-.0751953.8071289-.1494141,1.2006836-.2207031,1.6298828-.2919922,3.2490234-.5859375,4.8637695-.8789062,5.3339844-.9677734,10.8496094-1.9697266,16.4296875-2.8193359,7.0161133-1.0712891,14.3056641-1.0517578,22.0185547-1.03125,3.3374023.0087891,6.7915039.0175781,10.3793945-.0585938h.0024414c.0419922,0,.081543.0214844.1044922.0566406,1.2231445,1.8642578,3.0454102,3.703125,7.3071289,3.2236328-.2314453-.3388672-.5361328-.7119141-.855957-1.1035156-1.0175781-1.2460938-2.2807617-2.7929688-2.5317383-4.7753906-8.3339844-1.6767578-17.1508789-2.1435547-24.2094727-1.2783203-2.2592773.2773438-4.6162109.7578125-6.8955078,1.2226562-1.2324219.2509766-2.5063477.5107422-3.7485352.734375-3.6694336.6552734-7.4130859,1.4726562-11.0341797,2.2636719-6.9516602,1.5175781-14.1401367,3.0869141-21.1635742,3.5908203-.0649414-.0039062-.1264648-.0449219-.1333008-.1123047-.0068359-.0664062.0405273-.1269531.1074219-.1367188,7.4121094-1.0205078,14.9702148-2.5439453,22.2797852-4.0175781,3.840332-.7734375,7.8110352-1.5742188,11.6376953-2.2744141,1.1430664-.2089844,2.2958984-.4511719,3.4111328-.6865234,2.6479492-.5576172,5.3857422-1.1347656,8.1137695-1.2744141,7.2895508-.3642578,15.0078125.0625,20.0947266,1.0888672-4.3510742-2.0029297-9.4926758-3.0175781-15.3022461-3.0175781-5.4057617,0-10.7094727,1.2841797-15.3886719,2.4160156-.5927734.1435547-1.175293.2851562-1.746582.4208984-7.6157227,1.8164062-15.8095703,3.640625-24.3530273,5.4238281-.4101562.0869141-.8217773.1767578-1.2338867.2666016-2.3178711.5039062-4.715332,1.0253906-7.0541992,1.0458984h-.0009766c-.0639648,0-.1181641-.0488281-.1245117-.1123047-.0063477-.0644531.0371094-.1230469.1005859-.1357422,12.2436523-2.3730469,24.1928711-4.9296875,34.5551758-7.3935547.8735352-.2070312,1.7480469-.4277344,2.6225586-.6484375,2.9921875-.7548828,6.0864258-1.5361328,9.1381836-1.7529297,6.8691406-.453125,13.8657227.6630859,19.1943359,3.0703125.034668.0117188.0722656.046875.1743164.1474609.1337891.1318359.4477539.4384766.5996094.3955078.0551758-.0166016.1015625-.0996094.1308594-.2353516-.0029297-1.1181641-1.1181641-1.5761719-2.1020508-1.9794922-.230957-.0947266-.4487305-.1845703-.6464844-.2802734-2.796875-1.3798828-7.2822266-3.0244141-12.7753906-3.0244141h-.1098633c-3.4423828,0-6.5654297.8076172-9.8701172,1.6630859-.9174805.2373047-1.8666992.4833984-2.8212891.7099609-13.7724609,3.3056641-28.1699219,6.1992188-37.8222656,8.0449219-.0664062.0068359-.1323242-.0302734-.1459961-.0976562-.0136719-.0664062.0288086-.1328125.0952148-.1474609,4.5820312-1.0253906,9.5004883-2.0830078,14.2568359-3.1064453,7.4804688-1.6083984,15.215332-3.2724609,22.2607422-4.9375h.0004883c1.1699219-.2714844,2.3383789-.5810547,3.4682617-.8808594,3.019043-.7988281,5.8701172-1.5537109,8.9536133-1.7294922,5.8222656-.3105469,11.5493164,1.0810547,17.0131836,4.1660156.0170898.0087891.03125.0224609.0419922.0380859-.0092773-.2548828-.0668945-.4638672-.1264648-.6816406-.0898438-.3261719-.1821289-.6630859-.1123047-1.1601562-4.3964844-3.0253906-10.4287109-4.3525391-17.4604492-3.8388672-2.9228516.1992188-5.7441406,1.0087891-8.730957,1.8662109-1.1181641.3203125-2.2739258.6523438-3.4282227.9462891-11.7055664,2.9501953-24.8334961,5.8857422-36.9663086,8.265625-.046875.0058594-.0942383-.0097656-.1225586-.0458984-.0288086-.0371094-.034668-.0878906-.0146484-.1298828,3.8686523-8.2314453,7.7866211-16.6083984,11.5761719-24.7080078,3.0629883-6.5478516,6.1254883-13.0947266,9.1948242-19.6376953-.4677734.1064453-.8076172.3427734-1.1645508.5898438-.387207.2685547-.7871094.5458984-1.3623047.6552734-4.1669922,8.9433594-8.5107422,17.9443359-12.7114258,26.6503906-3.5136719,7.28125-7.1464844,14.8085938-10.6586914,22.2675781ZM170.5928498,355.8193359c-4.0498047.8056641-8.1513672,1.59375-12.2392578,2.2724609,4.0849609-.5732422,8.190918-1.4033203,12.2392578-2.2724609ZM174.4185334,353.7246094c-6.215332,1.3554688-12.7456055,2.7050781-19.3798828,4.0039062,1.7080078-.1835938,3.4331055-.5585938,5.1157227-.9257812.4125977-.0888672.824707-.1787109,1.2358398-.265625,4.4487305-.9287109,8.8017578-1.8681641,13.0283203-2.8125ZM189.9204865,348.5175781h0c-7.0478516,1.6650391-14.7841797,3.3291016-22.265625,4.9384766-.7050781.1513672-1.4135742.3037109-2.1245117.4570312,7.8774414-1.6044922,16.8793945-3.5390625,25.6298828-5.6386719.9526367-.2265625,1.9003906-.4716797,2.8168945-.7089844,3.3554688-.8681641,6.5200195-1.6806641,10.0429688-1.6708984,5.5410156,0,10.0649414,1.6582031,12.8842773,3.0498047.1904297.0917969.4047852.1796875.6318359.2734375.1572266.0644531.3208008.1318359.484375.2041016-5.0703125-2.625-10.3530273-3.8105469-15.7211914-3.5087891-3.0581055.1738281-5.8974609.9257812-8.9038086,1.7216797-1.1318359.2998047-2.3017578.609375-3.4750977.8828125ZM214.8448029,349.9658203c1.3271484.4199219,2.5952148.9160156,3.8022461,1.4902344-.003418-.0029297-.0063477-.0068359-.0097656-.0097656-.0478516-.046875-.0844727-.0849609-.1064453-.1005859-1.1552734-.5214844-2.3901367-.9824219-3.6860352-1.3798828ZM218.8770295,349.8798828c.0888672.0605469.1738281.125.2539062.1933594-.0058594-.0185547-.0102539-.0390625-.0136719-.0595703-.0795898-.0449219-.1601562-.0898438-.2402344-.1337891ZM202.4781037,348.2001953c-1.0048828,0-2.0117188.0332031-3.0166016.1005859-2.4985352.1777344-5.0341797.7382812-7.519043,1.3505859,3.4921875-.7597656,7.2114258-1.3808594,10.9873047-1.3808594,2.1313477,0,4.1743164.1357422,6.121582.40625-2.1347656-.3144531-4.3466797-.4765625-6.5732422-.4765625Z"/>
      <path class="h" d="M238.1509553,371.7929688c-.0380859,0-.0751953-.0175781-.0986328-.0488281-3.2158203-4.1826172-6.9365234-8.0429688-11.7109375-12.1503906l-.3613281-.3085938c-2.8095703-2.4052734-5.4643555-4.6767578-5.7783203-9.5722656-.0004883-.0029297-.0004883-.0048828-.0004883-.0078125v-.6601562c0-.046875.0258789-.0898438.0673828-.1113281.0410156-.0205078.0913086-.0175781.1293945.0087891,2.8037109,1.9697266,6.7539062,1.9707031,9.1914062.0048828.0498047-.0419922.1279297-.0351562.171875.0146484.5224609.5927734.6689453,1.2294922.8095703,1.8447266.078125.3369141.1572266.6865234.3007812,1.0166016.6035156,1.3720703,1.7353516,2.7900391,2.5927734,3.6591797,2.9726562,3.0341797,7.3164062,5.0390625,11.5166016,6.9775391,2.0566406.9501953,4.1835938,1.9316406,6.0615234,3.0039062.0498047.0283203.0742188.0859375.0595703.140625-.0166016.0605469-.0664062.09375-.140625.0927734-1.0400391,0-2.2041016-.2919922-3.4355469-.6015625-2.2470703-.5644531-4.5722656-1.1484375-6.4853516-.0644531-1.4863281.8378906-1.8388672,2.53125-2.2480469,4.4912109-.1484375.7138672-.3027344,1.4521484-.5214844,2.1816406-.0136719.0449219-.0517578.078125-.0976562.0869141-.0078125.0009766-.0146484.0019531-.0224609.0019531ZM220.4512482,349.7011719c.3081055,4.7871094,2.9233398,7.0244141,5.6918945,9.3935547l.3603516.3095703c4.7138672,4.0546875,8.4052734,7.8710938,11.5957031,11.9921875.1816406-.6425781.3173828-1.2939453.4492188-1.9248047.4033203-1.9365234.7841797-3.7646484,2.3691406-4.6572266,1.9980469-1.1328125,4.3730469-.5380859,6.6699219.0390625,1.0205078.2568359,1.9951172.5009766,2.8779297.5722656-1.7412109-.9628906-3.6152344-1.8271484-5.5888672-2.7382812-4.2207031-1.9482422-8.5849609-3.9628906-11.5898438-7.0292969-.8730469-.8847656-2.0263672-2.3310547-2.6445312-3.734375-.1523438-.3525391-.234375-.7128906-.3144531-1.0615234-.1328125-.578125-.2587891-1.1259766-.6777344-1.6445312-2.4677734,1.9150391-6.3583984,1.9335938-9.1987305.0634766v.4199219Z"/>
    </g>
  </g>
  <g>
    <path d="M213.0130463,305.3519287c-.5216827.0116577-.7881927.2090149-.7650299.4290161.0348358.2316589.3708344.4169922.8693695.3940125.5098419-.0229797.7765198-.2320251.741684-.4520264-.0231628-.2200012-.3710175-.3940125-.8460236-.3710327M225.3675233,304.7375793c-.475174.0233459-.7880096.2320251-.7531738.4523621.0461578.2316589.3823395.3940125.8691864.3710327.4981689-.0116577.7648468-.2320251.7531738-.4640503-.022995-.2316589-.3708344-.3819885-.8691864-.3593445M225.2980347,303.54422c.6026764-.034668,1.657196.1390076,1.7037201.6256714,1.6573792-.3823242,1.9238892.3710327,1.9238892,1.0546875-.1855164-.2779846-.3940125-.4173584-.5563507-.4403381-.231842-.0116577-.463501.0809937-.6838531.2433472-.2084961.196991-.4403381.4636841-.5446777.6373596.6258545.1159973,1.0778656,0,1.5298767-.1156616.231842-.0580139.5215149-.2203369.7070312-.3826904.1621704-.1503296.2084961-.2896729.4750061-.6490173.289856-.4053345.7071838-.3130188.660675.2896729-.1855164.6026917-.6141663.8923645-1.1705322,1.02005-.2781677.0463257-.6721802.1853333-1.1473694.2203369-.475174.0229797-1.0083618-.0350037-1.2980347.0580139.2084961.0923157.4288483.3013306.8228607.3476868.3940125.0693359.9503632-.3013306,1.3095245-.3943481,0,.3130188-.3591766.6493835-1.0776825.8576965-1.205368.3476868-2.2137299.6376953-2.8627472,1.0776978-.6141815.4290161-.9850159.9620361-1.240036,1.3793945-.510025.7996826-.4520111,1.4257202-.475174,1.5647278.0463257,1.251709.5795135,1.958374,1.3443604,2.144043.3940125.0809937,1.0431976-.1623535,1.240036-.48703.1971741-.3243408.3593445-.8690186.1738434-1.7037048-.1041565-.3359985-.5793457-1.1703491-.3128357-1.3673706,1.2633667-.8806763,2.7930756-1.8080444,3.9289246-2.3527222.3128357-.1506653.6490173.3246765.7648621.4983521,2.0165405-.3706665,3.6507568-1.947052,4.2419434-3.6044312.3940125-1.1006775,1.494873-.0693359,1.4716797.9620361-.0809937,1.1703491-.7648621,2.0397034-1.657196,2.6653748-.9040222.6493835-2.0630493,1.2984009-3.3031006,1.3213806-.6721802.1623535-.5215149,1.1127014.3013306,1.2633667,1.5993652-.0926514,2.8625793-.1853333,3.8709412-1.4837341.7650146-.9500122,1.4370422.0930176,1.2631836.718689-.1855164,1.8777161-2.5612183,2.5263977-5.1341248,2.0284119-.985199-.1047058-.2434998.9733582.0231628.9733582,1.158844.7533569,3.1292419,1.4487,4.5314331-.2433472.660675-.660675,1.2402039-.1506653,1.0780334.7533569-.3710327,2.3873901-3.2221069,2.0167236-5.2966614.9620361-.5215149-.2553711-.8692017.4286804-.2084961.9500122,2.6308899,1.6807251,3.8129272,1.6227112,4.7864685.8927002,1.2400208-.6376953,1.5878906.9620361.8808594,1.5180359-.8228455.6376953-3.1175842.3246765-4.9256287-.730011-.7765198-.5333557-.695343.3593445-.1853333.695343,2.213562,1.7383728,3.0480652,2.1790771,5.052948,1.7846985.9967041-.1390076,1.1590271,1.217041.4520264,1.7733765-.9850159.7763367-3.2682495-.3013306-5.1343079-1.6920471-.7416687-.3940125-.764679.2779846-.3243408,1.0313416,1.2168579,1.3443604,2.2715454,2.0860596,3.2217407,2.4223938.9736938.3476868,1.8428955.2316589,2.4223938-.0116577.7070312-.3359985.9155273.5100098.6256714,1.3093567-.1853333.48703-1.2052002.6838684-2.3988953.3013306-1.1821899-.3706665-2.5265808-1.3210144-3.5466003-2.480072-.7994995-.6373596-.5793457.2666931-.1621704.8927002,2.0513916,2.7812195,3.7319336,3.7432556,5.6904907,3.4650879.8692017-.1856995,1.1821899.53302.7070312,1.263031-.8460083.9388733-2.1092224.985199-3.3145752.1508484-1.1127014-.9620361-3.2450867-3.0365906-4.3809509-4.160614-.7648621-.5680237-.9155273.0229797-.5446777,1.2052002.2896729.6838684.8343506,1.390686,2.1555481,1.8660583.9273682.4866638.3941956,1.228363-.2316589,1.2746887-.3710327.0231628-1.1356812-.3938293-1.7732239-1.0081787-.8345337-.8460083-.9503479-1.4255371-1.5530396-2.7700806-.4520111-.6490173-1.0778656-.3126526-.9966888.3825073.5215149,1.3443604.8345184,1.5760193,1.5762177,2.1094055.6836853.5911865-.3361816.8576965-.7070312.6026917-1.1356964-.6721802-1.6573792-1.6342163-2.1093903-2.46875-.3359985-.6371765-.9966888-.3128357-.5330048.7303772,1.1356964,2.4220581,2.5843811,3.3143921,4.9256287,3.7085876.2433472.0465088.4055176.1738281.3476868.463501-.2550049.3710327-.4983521.6955261-.7648621,1.0548706,1.4718628.3706665,2.642395.5678406,4.1141052.9385071.6260376-.5215149,1.1243591-.9733582,1.7385559-1.5067139.1275024-.4518433.1043396-1.1590271,1.2053528-.7183533.6141663-.3710327.9503479-.2666931,1.4021912.0694885-.5561829.0348511-.7880249.2084961-.9501953.4983521-.1623535.8228455-.8111877.9388733-1.5067139.730011-.3708496.4173584-.5795288.7418518-.9386902,1.158844.8111877-.0693359,1.3443604-.1039734,2.1555481-.1736755.660675-.9388733,1.2633667-.9388733,1.9240723-.2433472.4403381.0463257.6026917.0463257.9733582.5910034-.4751892-.1853333-.7648621-.2433472-.9271851,0-.7531738.5446777-1.3095398.463501-1.7615356.0813599-.7880249.0924988-1.4950256.1736755-2.2832336.2896729.3361816.2433472.7533569.3589783,1.0778503.6140137,1.1242065-.4286804,1.8427124.0348511,2.178894,1.0780334.2201843.4169922.3708496.8460083.3708496,1.3095398-.1853333-.4055176-.4171753-.7531738-.7880249-.9733582-1.0315247.3706665-1.483551-.0811768-1.6573792-.7883606-.5563354-.4169922-1.3443604-.4750061-1.9238892-.9155273-.5563354.2203369-.8460083.3708496-1.4023743.6258545-.1275024.7070312-.5561829,1.02005-1.3675232.8692017-.9271851.0811768-.7070312.48703-.730011.8115234-.3246765-.452179-.3941956-.9157104.1273193-1.3793945.1275024-.6375122.5563354-.9271851,1.2053528-.6026917.5563354-.196991.660675-.463501,1.2168579-.6488342-1.5296936-.4290161-2.5495605-.4985352-4.0562744-.9157104-.3130188.3823242-.5563354.6492004-.8925171.9967041-.1621704.1391907-.3475037.1740112-.4751892.0115051-1.1125183-1.3558655-1.6920471-2.5729065-2.6655731-3.4652405-.3708344-.3938293-.8460236-.9040222-1.3095245-.9850159-.2433319-.0580139-.510025,0-.6606903.2086792-.1391754.2316589-.2201691.6026917-.0811768,1.1820374.1855164.8113708.4171753,1.0778503.707016,1.5528564.26651.48703.5795135.7651978.8923492,1.1245422.6375275.7415161,1.4023743,1.1473694,1.8543854,1.4021912.938858.5446777,1.2402039.2781677,1.8890381.2084961.8460083.0696716,1.1358643.4983521.5331726,1.1473694-.5795288.3826904-1.1590271.452179-1.6340332.3826904-.4173584-.0465088-.950531-.6026917-1.3213806-.8808594-.4520111-.452179-.9966888.1273193-.4983521.6490173.9271851.9733582,1.7848816,1.5760193,2.7120667,1.5411987,1.0313416.0928345.9503479.718689.3128357,1.0433655-1.1241913.6026917-2.3410645-.3593445-2.9669037-1.0085449-.510025-.4866638-.8228607-.4866638-.6375275.289856.6375275,1.390686,1.2865448,1.912384,2.2368927,1.9237061.741684-.0924988.8460236.521698.3476715.985199-1.1358643,1.02005-2.2715607-.5678406-2.8510742-1.518219-.4171753-.8576965-.8343506-.4171753-.7880096.3128357.1389923.985199.6605072,1.7385559,1.8775482,2.6772461-.6375275,1.483551-1.3792114,2.9787598-2.0052338,4.4737854-1.0545197-1.4025574-2.2133789-2.7932434-3.2449036-4.1956177.9501801-1.0661926,1.240036-1.8660583,1.0893555-2.8277283-.1391754-.75354-.6721802-1.1358643-.8460236-.2433472-.2898407,1.0196838-.973526,2.6653748-2.3759003,1.7845459-.6258545-.4055176-.707016-1.0430298.0579987-1.0081787.9386902-.1043396,1.425354-.6721802,1.6573792-2.0977173-.0579987-.7996826-.3246918-.7648621-.6840363-.231842-.4750061.684021-1.4021912,1.7385559-2.66539,1.2633667-.707016-.2896729-.9966888-.8806763,0-1.0546875.9501801-.0465088,1.6340332-.7416687,2.2482147-1.7733765.3593445-.5561829-.3475037-1.0893555-.6605072-.6140137-.2896729.3243408-.6836853.9153442-1.0547028,1.0081787-.475174.1159973-1.0547028.1045227-1.7383728-.2201843-.7650299-.5793457-.6026764-1.0315247.2086792-1.158844.6605072,0,1.0545197.2433472,1.7962036-.3941956.3825073-.3244934,1.0198517-.7880249,1.4372101-1.5643616.2201691-.4058533.4286652-.718689.5793457-1.217041.1391754-.5098267.2898407-.7767029.243515-1.5995483,0-.5678406-.2086792-.9616699-.3941803-1.158844-.2084961-.196991-.4981689-.2201843-.7185211-.1506653-.4171753.1506653-.7531738.695343-1.0198517,1.1127014-.7185211.9735107-.9270172,2.2367249-1.6340332,3.6969299-.1043396.1625061-.2896729.1391907-.4983521.0231628-.3940125-.2896729-.718689-.5678406-1.1358643-.9155273-1.3907013.5795288-2.3759003.7301941-3.7434235,1.2982178.5795135.1504822.7650299.4053345,1.3675385.5446777.5563507-.3826904,1.0547028-.1276855,1.3677063.4981689.6373444.3825073.695343.8345337.5330048,1.3213806-.1506653-.3128357-.0231628-.7301941-.973526-.718689-.741684.2084961-1.2863617-.0463257-1.5762024-.730011-.6373444-.1740112-.9503632-.2896729-1.5877075-.4868469-.4403381.4868469-1.1822052.6373596-1.6342163,1.1011963.0348358.7068481-.2896729,1.2050171-1.3907013.9616699-.3128357.2433472-.4520111.6026917-.5215149,1.0317078-.1160126-.452179-.0926666-.9157104,0-1.3445435.0463257-1.0546875.6026764-1.5877075,1.8427124-1.2746887.2550049-.2781677.6258545-.452179.8923492-.718689-.7996826-.0233459-1.5296936-.0348511-2.3178864-.0465088-.3708344.4173584-.8691864.5563354-1.7615356.0811768-.2203522-.2084961-.510025-.1388245-.9503632.1159973.231842-.5793457.3940125-.6141663.8113556-.695343.4518433-.730011,1.0545197-.8113708,1.970047.0463257.7996826-.0231628,1.3792114-.0231628,2.190567-.0463257-.4985199-.3593445-.7650299-.6723633-1.2631989-1.0313416-.6260223.2548218-1.2867126.2200012-1.6807251-.6026917-.26651-.2433472-.5330048-.3941956-1.0776825-.3826904.3128357-.3593445.6256714-.5213318,1.3675385-.1968384.9503632-.5331726,1.1241913.1504822,1.3675385.6026917.7648468.4518433,1.3907013.8460083,2.1325531,1.2978516,1.3675385-.4983521,2.4453888-.8228455,3.7897644-1.3443604l-1.0315247-.9503479c-.1273346-.2781677,0-.4403381.2201691-.4983521,2.190567-.6026917,3.3494263-1.6342163,3.7899323-4.1491089.1853333-1.0545044-.5795135-1.3327026-.707016-.6838684-.2433319.9040222-.475174,1.8892212-1.3790283,2.6772461-.3130188.2781677-1.3908691.1159973-.8693695-.5446777.5563507-.5910034.7996826-.8460083.9271851-2.213562-.1043396-.7070312-.8111877-.9620361-1.0778656-.2896729-.2086792,1.3675232-.1621704,1.9702148-.7648468,2.8625793-.4520111.7068481-1.1010284,1.1705322-1.4255371,1.1936951-.6490173.0116577-1.3908691-.6838684-.6258545-1.251709,1.1822052-.5795288,1.5298767-1.3327026,1.5993805-2.0165405.0348358-1.228363-.2550049-1.7963867-.8691864-1.1590271-.7880096,1.2285461-2.3180695,3.4652405-3.15242,4.5431213-.9503632.9271851-2.1903839,1.0083618-3.3030853.1740112-.6721802-.6492004-.5678406-1.4255371.3476715-1.2982178,2.0050507.0696716,3.3725891-1.0545044,4.635788-3.9866028.243515-.660675.2086792-1.5880432-.4403381-.8693542-.6373444,1.2286987-1.71521,2.3062134-2.7698975,2.7929077-1.0545197.48703-2.1325531.3826904-2.4570618-.0576477-.5215149-.7650146-.5446777-1.5995483.2666779-1.3675232.6373444.2084961,1.5298767.2084961,2.3759003-.196991.8460236-.4407043,1.680542-1.2984009,2.5034027-2.7237549.2316589-.7880249.0231628-1.4487-.6143494-1.0196838-1.4255371,1.5643616-3.395752,2.874054-4.577774,2.2133789-.8693695-.4866638-1.0547028-1.8423462-.0579987-1.8080444,2.0860443.2090149,2.7930756-.3243408,4.4851074-2.2597046.3940125-.3706665.231842-1.251709-.3940125-.6493835-1.4835358,1.1940613-3.6624298,1.7617188-4.635788,1.2053528-.8693695-.4866638-.973526-2.0973816.4403381-1.5990295,1.1822052.6490173,2.3527222.5676575,4.4736176-1.3447266.5098419-.5563354-.0465088-1.2166748-.4868469-.9036865-1.7383728,1.2400208-4.4271088,1.8890381-5.4817963-.4290161-.4056854-.8806763.0231628-1.4136963.8460236-.8343506,1.8658752,1.5067139,3.604248.6373596,4.5199432-.2433472.2896729-.0116577.6836853-1.1590271-.231842-.9386902-2.3990631.730011-4.9254456.3243408-5.6324768-1.5067139-.3476715-.6026917.022995-1.6690369,1.0430298-.8230286,1.3792114,1.1707153,2.642395,1.1590271,4.2186127,1.0776978.7881927-.2433472.6606903-1.1586914-.0463257-1.2860107-1.2168579.0923157-2.5614014-.4290161-3.6390839-.9736938-1.0315247-.53302-1.9472198-1.3096924-2.3759003-2.4570618-.2898407-.9967041.475174-2.144043,1.1936951-1.0780334,1.0547028,1.5300598,3.1059113,2.9554138,5.1804657,3.1064453.0813446-.1740112.2898407-.6723633.6143494-.5796814,1.2863617.4520264,3.0480804,1.1940613,4.5316162,1.9353638.3359985.1853333.1041565,1.0546875.0695038,1.4023743.0579987.8230286.3708344,1.3677063.6606903,1.6573792.2896729.3013306,1.008194.4636841,1.3673553.3476868.718689-.2550049,1.0083618-.9967041.718689-2.2483826-.0579987-.1276855-.1855164-.7303772-.9040222-1.5067139-.3708344-.3710327-.8923492-.8690186-1.6225433-1.217041-.741684-.3819885-1.8195496-.5446777-3.1175842-.7993469-.7650299-.0930176-1.205368-.3943481-1.3097076-.718689.3940125.0580139,1.0430298.3593445,1.4138641.2666931.3710175-.1159973.5565338-.3246765.6955261-.4407043-.2896729-.0580139-.8230286.0580139-1.2750397.0696716-.4750061.0350037-.8921814-.0580139-1.1820221-.1043396-.6026764-.0809937-1.1010284-.3013306-1.4487-.8693542-.2086792-.6026917.1621704-.730011.5795135-.3589783.3476715.3243408.4288483.4750061.6373444.6140137.2086792.1159973.5446777.2436829.7881927.2783508.4983521.0580139.973526.1273193,1.5530396-.0463257-.1391754-.1506653-.4520111-.4056702-.707016-.5563354-.26651-.1506653-.510025-.2086792-.741684-.1506653-.1623383.034668-.3478546.1853333-.4520111.4750061-.1855164-.6950073-.1275024-1.4603882,1.6340332-1.2166748-.1041565-.5333557.8925323-.7883606,1.4835358-.8113708.3591766-.0116577,1.1010284.1623535,1.6340332.4056702.8576965.2086792,1.680542.3710327,2.6309052.4056702-.475174.521698-.5795135.5680237-1.0776825,1.0083618.8921814.2896729,1.6223602.9386902,1.9933777,1.3673706-.7301941.0696716-.973526.0116577-1.205368.1393433,1.0547028.2779846,1.5528717.4400024,2.1555481.9967041-.1853333.04599-.4520111.1039734-.5795135.1619873-.1041565.0580139-.0461578.1276855.0579987.2203369.231842.1390076,1.2865448,1.217041,1.5993805,1.4833679.2086792-.2779846.9503632-1.4716797,1.1590271-1.6340332.0578308-.0926514.1043396-.1623535-.0231628-.2086792s-.4171753-.0809937-.6026764-.1273193c.463501-.5910034.8691864-.7996826,1.8427124-1.1707153-.26651-.0926514-.4983521-.0229797-1.240036-.0229797.2316589-.4636841.7881927-1.1707153,1.5762024-1.5417175-.6260223-.4169922-.7301941-.4169922-1.3445435-.8806763.9271851-.1156616,1.7153778-.3589783,2.4802399-.6603394.475174-.2783508,1.1590271-.5446777,1.5067139-.5680237"/>
    <path class="e" d="M145.3989411,314.9715271l20.2240295-38.3963318,43.4496307.3130188,6.0264893,13.0033264,3.4190979,3.2680664-2.7120819,1.2053528-1.2980347-4.5080872-7.058197-10.5352783-6.269989,10.7786255c-11.6011353-.8113708-20.4903564,1.9933777-28.0815582,6.547821,9.190567-4.4154358,18.9838257-6.1074829,29.7041016-3.7547607l6.6988373,11.5203247c-17.8016205-.6376953-32.1494904,5.9451294-42.186264,21.4866943l-6.9653473-11.3227844"/>
    <path class="f" d="M167.3125764,326.1347656l-7.0317383-11.4306641-15.0917969.3984375.0991211-.1894531,20.2597656-38.4638672.0761719.0009766,43.5288086.3144531.0332031.0712891,6.0166016,12.9814453,3.5366211,3.3798828-3.0136719,1.3408203-1.3325195-4.6279297-6.9360352-10.3535156-6.2084961,10.6738281-.0776367-.0048828c-9.5014648-.6630859-17.7143555.9853516-25.6176758,5.1787109,9.0444336-3.8095703,17.9946289-4.6679688,27.2758789-2.6328125l.0537109.0117188.0273438.0478516,6.8129883,11.7158203-.2265625-.0078125c-18.3300781-.6484375-32.4707031,6.5537109-42.0766602,21.4287109l-.1074219.1669922ZM160.4185334,314.4501953l.0375977.0615234,6.8618164,11.1542969c4.9033203-7.5380859,10.9995117-13.1513672,18.1225586-16.6884766,6.8613281-3.40625,14.8725586-4.9873047,23.8388672-4.6962891l-6.5576172-11.2773438c-10.0629883-2.1962891-19.7353516-.9677734-29.5693359,3.7568359l-.1186523-.2197266c8.6708984-5.2011719,17.5952148-7.2910156,28.0771484-6.5703125l6.331543-10.8847656,7.1855469,10.7363281,1.2587891,4.3701172,2.4101562-1.0712891-3.3110352-3.1767578-5.9931641-12.9316406-43.2944336-.3115234-20.0893555,38.1396484,14.8095703-.390625Z"/>
  </g>
</svg>