<?xml version="1.0" encoding="UTF-8" standalone="no"?>
<!-- Created with Inkscape (http://www.inkscape.org/) -->

<svg
   xmlns:svg="http://www.w3.org/2000/svg"
   xmlns="http://www.w3.org/2000/svg"
   version="1.1"
   width="169"
   height="137"
   id="svg3237">
  <defs
     id="defs3239" />
  <g
     transform="translate(-615.4741,-674.91752)"
     id="layer1">
    <path
       d="m 775.91786,769.03878 c -6.35,0 -11.9225,-3.3975 -11.9225,-11.0825 0,-7.025 5.15,-11.0625 11.9225,-11.0625 2.175,0 4.5325,0.2125 6.7875,0.8375 l 1.4375,-9.1175 c -3.1,-0.9025 -6.9575,-1.3975 -10.5625,-1.3975 -10.8925,0 -18.8475,7.225 -20.855,16.3075 l 0,-78.5625 -136.92002,0 0,136.91248 136.92002,0 0,-48.98 c 2.0075,9.745 10.035,15.8325 20.855,15.8325 3.605,0 7.4625,-0.4875 10.5625,-1.385 l -1.4375,-9.1425 c -2.14002,0.57752 -4.6125,0.84 -6.7875,0.84 z m -158.74,41.4825 c 0,-1.3375 0,-132.8675 0,-134.22 1.32,0 132.8625,0 134.215,0 0,0.645 0,30.1925 0,61.41 l -11.51502,0.014 -9.345,22.875 -0.14,0 c 0.14,0 -1.8075,-22.875 -1.8075,-22.875 l -12.36998,0 -12.715,36.7175 0,-36.7175 -12.1425,0 -9.34,22.875 -0.16,0 c 0.16,0 -1.8075,-22.875 -1.8075,-22.875 l -12.3475,0 -14.1075,39.9175 11.1825,0 6.865,-22.3325 0.0476,0 1.4975,22.3325 10.03,0 9.79,-22.3325 0.1076,0 -0.59,22.3325 20.78,0 6.86,-22.3325 0.0724,0 c -0.0724,0 1.46,22.3325 1.46,22.3325 l 10.07,0 9.7625,-22.3325 0.125,0 -0.59,22.3325 10.3275,0 c 0,18.62 0,32.46 0,32.8775 -1.3525,0 -132.895,0 -134.215,0"
       id="path118"
       style="fill:#1266ac;fill-opacity:1;fill-rule:nonzero;stroke:none" />
  </g>
</svg>
