<?xml version="1.0" encoding="UTF-8"?>
<svg id="Layer_1" data-name="Layer 1" xmlns="http://www.w3.org/2000/svg" xmlns:xlink="http://www.w3.org/1999/xlink" viewBox="0 0 960 960">
  <defs>
    <style>
      .cls-1 {
        fill: url(#linear-gradient);
      }

      .cls-1, .cls-2, .cls-3, .cls-4, .cls-5, .cls-6, .cls-7, .cls-8, .cls-9 {
        stroke-width: 0px;
      }

      .cls-2 {
        fill: url(#linear-gradient-8);
      }

      .cls-2, .cls-3, .cls-7, .cls-8 {
        isolation: isolate;
        opacity: .18;
      }

      .cls-3 {
        fill: url(#linear-gradient-7);
      }

      .cls-4 {
        fill: url(#linear-gradient-2);
      }

      .cls-5 {
        fill: #080841;
      }

      .cls-6 {
        fill: url(#linear-gradient-3);
      }

      .cls-7 {
        fill: url(#linear-gradient-5);
      }

      .cls-8 {
        fill: url(#linear-gradient-6);
      }

      .cls-9 {
        fill: url(#linear-gradient-4);
      }
    </style>
    <linearGradient id="linear-gradient" x1="174.46" y1="414.05" x2="-89.79" y2="691.69" gradientTransform="translate(.01 952.41) scale(.99 -.99)" gradientUnits="userSpaceOnUse">
      <stop offset="0" stop-color="#e82a73"/>
      <stop offset=".11" stop-color="#de2d7a"/>
      <stop offset=".3" stop-color="#c5388f"/>
      <stop offset=".54" stop-color="#9b4ab0"/>
      <stop offset=".82" stop-color="#6262de"/>
      <stop offset=".99" stop-color="#3b73ff"/>
    </linearGradient>
    <linearGradient id="linear-gradient-2" x1="175.92" y1="415.41" x2="-88.33" y2="693.06" gradientTransform="translate(.01 952.41) scale(.99 -.99)" gradientUnits="userSpaceOnUse">
      <stop offset="0" stop-color="#ff3c82"/>
      <stop offset=".1" stop-color="#f53e88"/>
      <stop offset=".27" stop-color="#dc4598"/>
      <stop offset=".49" stop-color="#b251b2"/>
      <stop offset=".74" stop-color="#7961d7"/>
      <stop offset=".99" stop-color="#3b73ff"/>
    </linearGradient>
    <linearGradient id="linear-gradient-3" x1="174.74" y1="445" x2="85.2" y2="769.48" xlink:href="#linear-gradient"/>
    <linearGradient id="linear-gradient-4" x1="145.66" y1="418.29" x2="-174.88" y2="515.93" xlink:href="#linear-gradient"/>
    <linearGradient id="linear-gradient-5" x1="-8.34" y1="651.08" x2="81.44" y2="445.35" gradientTransform="translate(.01 952.41) scale(.99 -.99)" gradientUnits="userSpaceOnUse">
      <stop offset="0" stop-color="#e82a73"/>
      <stop offset=".11" stop-color="#de286e"/>
      <stop offset=".3" stop-color="#c52361"/>
      <stop offset=".54" stop-color="#9b1a4d"/>
      <stop offset=".82" stop-color="#620f30"/>
      <stop offset=".99" stop-color="#3d081e"/>
    </linearGradient>
    <linearGradient id="linear-gradient-6" x1="66.13" y1="575.75" x2="155.91" y2="370.01" xlink:href="#linear-gradient-5"/>
    <linearGradient id="linear-gradient-7" x1="-41.64" y1="514.89" x2="161.7" y2="379.81" xlink:href="#linear-gradient-5"/>
    <linearGradient id="linear-gradient-8" x1="622.34" y1="-3177.62" x2="657.19" y2="-3452.71" xlink:href="#linear-gradient-5"/>
  </defs>
  <g>
    <path class="cls-1" d="M83.64,385.4H21.43v61.78h62.21v-61.78Z"/>
    <path class="cls-4" d="M157.36,459.98h-62.23v61.77h62.23v-61.77Z"/>
    <path class="cls-6" d="M157.36,385.4h-62.23v61.78h115.58v-8.83c0-14.07-5.63-27.55-15.63-37.44-10.04-9.94-23.59-15.51-37.72-15.5h0Z"/>
    <path class="cls-9" d="M21.42,459.98v61.77c0,14.05,5.62,27.51,15.62,37.44,10.04,9.94,23.6,15.51,37.74,15.5h8.89v-114.71H21.42Z"/>
    <path class="cls-7" d="M21.42,385.4l62.22,61.78H21.42v-61.78Z"/>
    <path class="cls-8" d="M95.13,459.98l62.23,61.77h-62.23v-61.77Z"/>
    <path class="cls-3" d="M21.42,521.75c0,14.05,5.62,27.51,15.62,37.44,10.04,9.94,23.6,15.51,37.74,15.5h8.89v-114.71l-62.24,61.77Z"/>
    <path class="cls-2" d="M157.37,385.4c14.14,0,27.71,5.58,37.72,15.5,9.99,9.9,15.61,23.38,15.62,37.44v8.83h-115.55l62.22-61.78Z"/>
  </g>
  <path class="cls-5" d="M327.44,468.92h-14.83v66.6h-16.72v-66.6h-9.46v-13.53h9.46v-5.67c0-9.21,2.42-15.9,7.27-20.07,4.94-4.26,12.65-6.39,23.12-6.4v13.82c-5.05,0-8.59.97-10.62,2.91-2.03,1.84-3.05,5.09-3.05,9.75v5.67h14.83v13.53ZM347.66,444.78c-3.01,0-5.53-1.02-7.57-3.06-2.01-2-3.11-4.73-3.05-7.56,0-3,1.02-5.52,3.06-7.56,2.03-2.03,4.55-3.05,7.56-3.05s5.37,1.02,7.41,3.05c2.04,2.04,3.06,4.57,3.06,7.57s-1.02,5.52-3.05,7.55c-1.95,2-4.63,3.1-7.42,3.06M355.8,455.4v80.13h-16.57v-80.13h16.57ZM391.24,467.03c2.29-3.95,5.6-7.22,9.59-9.46,4.08-2.33,8.88-3.49,14.41-3.49v17.16h-4.22c-6.5,0-11.44,1.65-14.83,4.95-3.3,3.3-4.95,9.02-4.95,17.16v42.17h-16.57v-80.13h16.57v11.63ZM501,493.49c0,3.01-.2,5.72-.59,8.14h-61.23c.49,6.4,2.87,11.55,7.13,15.43,4.27,3.87,9.5,5.81,15.71,5.81,8.92,0,15.22-3.73,18.9-11.2h17.89c-2.38,7.3-7.01,13.67-13.23,18.17-6.3,4.66-14.16,6.98-23.57,6.98-7.65,0-14.53-1.7-20.64-5.09-5.99-3.45-10.92-8.48-14.25-14.54-3.39-6.3-5.09-13.58-5.09-21.82,0-8.24,1.65-15.47,4.95-21.67,3.21-6.1,8.11-11.14,14.1-14.54,6.11-3.39,13.1-5.09,20.95-5.09s14.3,1.65,20.22,4.95c5.9,3.29,10.51,7.95,13.82,13.96,3.29,5.92,4.93,12.75,4.94,20.5M483.69,488.26c-.09-6.1-2.27-11-6.54-14.69-4.27-3.68-9.55-5.53-15.85-5.53-5.72,0-10.62,1.84-14.69,5.53-4.07,3.59-6.49,8.49-7.27,14.69h44.35ZM547.99,468.92h-14.83v66.6h-16.72v-66.6h-9.45v-13.53h9.45v-5.67c0-9.21,2.42-15.9,7.27-20.07,4.95-4.26,12.66-6.39,23.13-6.4v13.82c-5.04,0-8.57.97-10.61,2.91-2.04,1.84-3.06,5.09-3.06,9.75v5.67h14.83v13.53ZM576.36,427.91v107.61h-16.58v-107.61h16.58ZM603.66,444.78c-3.01,0-5.53-1.02-7.57-3.06-2.01-2-3.11-4.73-3.05-7.56,0-3,1.02-5.52,3.06-7.56,2.03-2.03,4.55-3.05,7.56-3.05s5.37,1.02,7.41,3.05c2.04,2.04,3.06,4.57,3.06,7.57s-1.02,5.52-3.06,7.55c-1.94,2-4.63,3.1-7.41,3.06M611.8,455.4v80.13h-16.58v-80.13h16.58ZM704.1,493.49c0,3.01-.2,5.72-.59,8.14h-61.22c.48,6.4,2.85,11.55,7.12,15.43,4.27,3.87,9.5,5.81,15.71,5.81,8.92,0,15.22-3.73,18.9-11.2h17.89c-2.38,7.3-7.01,13.67-13.23,18.17-6.3,4.66-14.16,6.98-23.57,6.98-7.65,0-14.53-1.7-20.63-5.09-5.99-3.45-10.93-8.48-14.26-14.54-3.39-6.3-5.08-13.58-5.08-21.82s1.65-15.47,4.94-21.67c3.21-6.1,8.11-11.14,14.1-14.54,6.11-3.39,13.1-5.09,20.95-5.09s14.3,1.65,20.22,4.95c5.91,3.29,10.51,7.95,13.82,13.96,3.29,5.92,4.93,12.75,4.94,20.5M686.79,488.26c-.09-6.1-2.27-11-6.54-14.69-4.27-3.68-9.55-5.53-15.85-5.53-5.72,0-10.61,1.84-14.69,5.53-4.07,3.59-6.49,8.49-7.27,14.69h44.35ZM746.58,536.83c-6.3,0-11.98-1.11-17.02-3.34-4.94-2.33-8.87-5.43-11.77-9.31-2.85-3.84-4.48-8.45-4.66-13.23h17.16c.3,3.39,1.9,6.26,4.8,8.58,3.01,2.23,6.74,3.34,11.2,3.34s8.24-.87,10.76-2.62c2.62-1.84,3.93-4.16,3.93-6.98,0-3-1.45-5.23-4.35-6.69-2.81-1.46-7.33-3.06-13.53-4.8-4.98-1.31-9.88-2.92-14.68-4.8-3.81-1.57-7.19-4.01-9.89-7.13-2.71-3.2-4.07-7.42-4.07-12.65,0-4.26,1.26-8.14,3.78-11.63,2.52-3.59,6.1-6.4,10.76-8.43,4.76-2.04,10.18-3.06,16.28-3.06,9.12,0,16.44,2.33,21.96,6.98,5.63,4.56,8.64,10.81,9.03,18.76h-16.58c-.17-3.35-1.76-6.47-4.36-8.58-2.62-2.13-6.16-3.2-10.62-3.2s-7.7.83-10.03,2.48c-2.21,1.43-3.53,3.9-3.49,6.54,0,2.13.78,3.93,2.33,5.39,1.55,1.46,3.45,2.62,5.68,3.48,2.23.78,5.52,1.8,9.88,3.06,5.82,1.55,10.57,3.15,14.25,4.8,3.79,1.55,7.04,3.88,9.75,6.98,2.71,3.1,4.12,7.22,4.21,12.36,0,4.55-1.26,8.62-3.79,12.21-2.52,3.59-6.11,6.4-10.75,8.43-4.56,2.04-9.94,3.06-16.15,3.06M798.96,536.55c-3,0-5.52-1.02-7.56-3.06-2.01-2-3.12-4.74-3.05-7.57,0-3,1.02-5.51,3.05-7.55,2.04-2.04,4.56-3.06,7.57-3.06,2.9,0,5.37,1.02,7.41,3.06,2.04,2.03,3.06,4.55,3.06,7.56s-1.02,5.52-3.06,7.56c-1.95,1.99-4.63,3.1-7.42,3.05M818.92,495.09c0-8.04,1.65-15.17,4.94-21.37,6.44-12.16,19.1-19.73,32.86-19.64,6.3,0,11.78,1.26,16.44,3.79,4.74,2.42,8.52,5.48,11.34,9.16v-11.64h16.72v80.14h-16.72v-11.93c-2.81,3.79-6.64,6.94-11.49,9.46-4.85,2.52-10.37,3.78-16.57,3.78-6.67.06-13.22-1.75-18.91-5.23-5.78-3.65-10.5-8.77-13.67-14.83-3.3-6.4-4.95-13.62-4.95-21.67M884.5,495.39c0-5.52-1.17-10.32-3.5-14.4-2.04-3.86-5.11-7.08-8.87-9.3-3.62-2.12-7.73-3.23-11.93-3.21-4.26,0-8.23,1.07-11.93,3.2-3.68,2.04-6.69,5.1-9.01,9.17-2.23,3.98-3.35,8.72-3.35,14.24s1.12,10.38,3.35,14.55c2.32,4.16,5.33,7.36,9.01,9.6,3.79,2.13,7.76,3.2,11.93,3.2s8.23-1.07,11.93-3.2c3.69-2.13,6.65-5.23,8.87-9.3,2.33-4.17,3.5-9.02,3.5-14.55M928.53,444.78c-3.01,0-5.53-1.02-7.57-3.06-2.01-2-3.11-4.73-3.05-7.56,0-3,1.02-5.52,3.06-7.56,2.03-2.03,4.55-3.05,7.56-3.05s5.37,1.02,7.41,3.05c2.04,2.04,3.06,4.57,3.06,7.57,0,3-1.02,5.52-3.06,7.55-1.95,2-4.63,3.1-7.42,3.06M936.66,455.4v80.13h-16.58v-80.13h16.58Z"/>
</svg>