<svg version="1.1" viewBox="0 0 5017 1350" class="mr-3 ml-1.5 h-7 relative top-[1px] relative z-[70]" xmlns="http://www.w3.org/2000/svg" xmlns:xlink="http://www.w3.org/1999/xlink"><style type="text/css">.st0{fill:#1E1E1E;}</style><path class="st0" d="M1033.7697754,1021.5519409c-21.5993652,24.2390747-40.1063843,38.9168091-50.3071899,45.9337769  c-4.7957153,3.1881104-7.7962036,7.6500244-11.9937134,11.4755859  c-22.1997681,19.1352539-46.2614746,24.8300781-63.06073,38.2254639  c-22.7993164,17.8594971-107.9772339,39.0952148-132.1790771,46.5419922  c-40.9568481,9.3083496-87.0346069,12.6678467-137.4344482,10.7545166c-10.9053955,0-20.991272-0.0043945-30.2585449-0.7252197  c-3.7649536-0.2927246-7.5383911,0.675293-11.3141479,0.7230225c-0.1495361,0.0021973-0.2905884,0.0021973-0.4226685,0.0021973  c-0.4011841,0-1.0690918-0.2862549-2.0055542-0.8564453c-1.0635376-0.6470947-2.2635498-1.0601807-3.5089722-1.0601807  c-0.3252563,0-0.6525269-0.0292969-0.9745483-0.0726318c-5.079895-0.6959229-7.78125,1.0863037-9.7347412,2.0770264  c-1.4796143,0.7501221-3.0903931,0.12146-4.4910889-0.7674561c-4.4314575-2.8129883-14.3168945-9.1362305-17.6815796-10.1606445  c-3.3172607-1.0081787-3.6425171,0.3685303-5.4051514,0.6785889c-1.1813965,0.2081299-2.4096069-0.2070312-3.2974854-1.0124512  c-0.9940186-0.9008789-2.0576172-2.2006836-4.4989014-3.4992676c-4.4888306-2.3859863-6.8792114,3.0352783-13.5491943-3.0321045  c-0.9690552-0.8812256-1.5383301-2.6135254-2.845459-2.6959229c-0.3275146-0.0206299-0.5649414-0.0401611-0.8869629-0.1030273  c-6.7153931-1.3029785-18.9173584-3.7995605-27.1170044-6.2895508c-9.6000977-2.5517578-6.6083069-4.4597168-10.8088074-6.3730469  c-56.3989868-21.0496826-136.7931519-62.5150146-166.1929932-91.8565674  c-10.7991943-10.8436279-23.3979187-35.7210083-31.1984558-42.1016846  c-6.0003052-5.1036377-18.0027161-15.3076172-21.0029907-20.4100952c-2.3995667-4.46521-0.0043335-12.7537231-4.2025452-18.4946899  c-5.4000549-7.0169678-16.20224-10.8468628-26.4021149-26.7940674  c-11.3994293-17.859436-17.9988098-41.4598999-29.3980103-65.6978149  C201.9965973,854.911499,175.0002289,786.0202026,175,660.3612671c0-84.1989746,38.999939-200.9341125,55.8001099-216.8802185  c10.7962036-10.2072754,9.5955048-32.528595,17.3930664-43.3721619  c89.0116882-123.7463379,244.8043213-214.7861938,430.2043457-224.3546295  c7.5328979-0.3865662,15.072876-0.6276245,22.6151733-0.7156677c45.7410278-0.5339661,91.583374,4.4694061,136.0370483,15.3110352  c44.4141846,10.8320007,86.8728638,27.7349396,128.2607422,46.9507446c0,0,4.9141846,0.3894501,6.2098389,1.025589  c2.1591797,1.0615234,3.0708008,2.9949188,5.2293091,4.0579529c2.1591797,1.0615234,5.2803345,0.1610107,7.638855,0.6438293  c7.774292,1.5916138,9.1699829,6.2081909,10.6022949,8.0475006c1.7391968,2.2333527,3.8304443,3.0867004,7.7841187,4.2215271  c10.3123169,2.9599457,11.6682129,6.3678436,13.0709839,7.9369965c1.119751,1.2547913,1.607605,2.8812866,2.1669922,4.3390503  c0.567688,1.4821777,1.6954956,2.8354187,3.2773438,3.2061462c3.4158325,0.8006287,8.0632935,4.9833679,9.0244751,10.689209  c0.626709,3.7198792,4.6495361,5.3226929,3.550293,12.3006287c-0.3560791,2.2603149,2.0496826,5.6016541-10.5968628,18.0704041  s-39.1845703,20.3282166-55.3406982,14.1350403c-55.8503418-21.4093018-64.1322632-25.5296631-86.5679932-31.6485291  c-40.9569092-11.1700439-75.8527832-18.759491-118.357605-17.9596558  c-67.8004761,1.2758789-121.2071533,7.6550598-185.40625,29.9805298  c-28.1415405,9.9719849-81.2704468,37.1080322-107.9295349,58.2385254  c-26.6590576,21.1304932-65.2558594,50.3164368-81.1852112,77.333252  c-5.5780029,9.4605408-11.855896,18.4968567-25.0551147,33.1670837  c-19.1992798,21.0486755-41.4223938,81.9349976-48.6236267,111.2775879  c-1.8004761,6.378479,2.9920044,13.3964844,0.5931396,19.776062c-2.4002686,7.0158081-13.8008423,10.2126465-15.0008545,15.9525757  c-4.7991028,20.4112549-3.5990906,46.5614014-3.5990906,68.8848267c0,12.1184082,3.6023254,28.7008667,7.8019104,38.2695923  c2.9993286,6.378479,12.6040039,10.8457642,13.8040161,17.2242432c0.5993347,4.4628906-5.393158,9.5643921-5.3984375,13.3910522  c0,3.18927,5.394104,46.5743408,8.3945923,52.9528198c4.2018738,7.6532593,17.4031372,17.21875,21.0031738,26.1479492  c2.3988953,6.378418-4.2071533,12.7611694,0.5928955,19.1396484c2.9995728,3.8277588,12.6074829,3.8223267,16.2075195,8.9248047  c4.7988892,6.3773804,14.9953308,24.8699341,19.7965393,30.6152954c3.6000366,4.46521,10.2007751,6.3861084,13.2003479,8.2993774  c8.997345,6.378479,1.2043762,12.1140747,9.6021729,21.6806641c26.3995667,29.9800415,67.201355,66.9834595,106.2017517,83.5680542  c6.0163574,2.557251,67.7541504,26.1316528,71.3931885,26.1478882  c86.9951172,12.8286133,184.8383179,11.6269531,269.4393921-35.5750732  c19.8032227-10.8468628,131.9692383-88.8079224,150.5701294-181.2953491  c4.199585-18.4979858,9.5991821-63.1557007,7.1991577-81.0162354  c-9.6012573-66.338501-50.4778442-161.756897-125.4051514-197.0944824  c-39.9141846-18.8244629-70.1998291-18.5001221-77.9994507-17.2241821  c-22.7984009,4.4640503-30.5991821-8.9313354-51.5977783-7.019104  c-64.199707,5.1035767-127.1983032,22.9663086-176.3981323,74.6334229  c-45.0004272,47.8394775-54.0087891,109.0753784-31.208313,147.9856567  c2.4000244,5.1025391,1.2000122,11.4831543-3.6000366,14.6723633c-2.0986328,1.2759399-4.0477295,2.8704834-4.9475098,4.5453491  c-1.7897339,3.3290405,3.3853149,5.1079712,6.9530029,6.3568115c24.9576416,8.7318726,33.9572754,50.8421631,66.9963379,49.0578003  h7.197998c0,0,13.8040771-0.0042725,19.2036743-6.3827515c4.4381104-5.2423706,4.4185791-11.3465576,1.2727051-14.0631104  c-1.402771-1.2108765-3.1762085-1.93396-3.5881348-3.7410278c-0.453186-1.9924316-0.6798096-4.6146851-0.6807251-5.7930298  c0-1.2758789,1.8004761-1.9208984,1.8004761-3.1968384c-0.0032349-3.8255615-4.199585-7.0148315-3.6000366-10.840332  c0.3848877-2.0368652,3.2131348-4.854248,5.2076416-6.9572754c1.515625-1.5979004,1.5371704-3.633667,0.5454102-5.6001587  c-0.0357666-0.0704956-0.0715942-0.1419678-0.1064453-0.2146606c-0.9614868-1.973999-1.1403809-4.317688-0.4866943-6.4130859  c0.3761597-1.2044067,0.8314209-2.4910889,0.8325806-3.7767944c0.5995483-5.7399292-1.7919922-8.2928467-2.3924561-12.7558594  c0-1.5761108,8.5443726-5.3193359,11.559082-7.65979c0.8889771-0.6893921,0.9841919-1.8438721,0.6906128-2.9300537  c-0.6234131-2.3154907-1.4516602-3.0331421-1.4516602-7.2695923c0-1.0189209,0.8607788-2.444458,1.8949585-3.7886353  c2.0835571-2.710083,4.000061-5.5979614,4.940918-8.8847656l1.6586914-5.7875977  c0.692688-2.4196167,2.5321655-4.3448486,4.9182129-5.1459351c4.1344604-1.3908081,2.2167358-8.130249,6.1550903-10.0077515  c1.145874-0.5463867,4.0239258,0.1473999,8.6333618-0.8325806c9.5946045-1.913269,2.9984131-5.1036377,4.7956543-10.2050781  c0.8390503-3.1242065,3.4406738-2.8141479,5.9555664-2.5648193c2.0162964,0.2005615,3.9796753-0.4606934,5.4301147-1.8753662  c1.4275513-1.3908081,2.8681641-3.0212402,4.8108521-3.8494263c2.4325562-1.0341187,8.8131714-1.2336426,13.3790283-1.2715454  c1.8786621-0.0162354,3.7443237-0.2851562,5.6099243-0.505127c5.0961304-0.5994873,12.3264771-0.2439575,15.819397-0.7740479  c4.1973267-0.6395874,6.5961914-4.4662476,10.1941528-4.4672852c3.0007324,0,7.2055664,5.102478,10.2051392,5.102478  c2.9995728-0.0021362,5.9989014-2.5517578,8.9984741-2.5517578c1.7995605,0.0010986,2.4000244,3.1859741,5.3984985,3.1870728  h1.1967773c0,0,27.6039429,0.6352539,56.4033203,18.4936523c19.7999878,12.1194458,34.2044678,41.4663086,34.2044678,41.4663086  c13.7987671,23.6005249-1.5100708,47.8635864-1.5100708,69.5507812c0,8.9302368,2.9960938,16.5846558,1.1967773,24.8774414  c-1.2011719,6.3773804-6.0023804,11.4852905-7.8030396,16.5889893c-1.7973022,4.4640503-1.7949829,10.2061157-7.7909546,18.4935913  c-4.8000488,7.0158081-7.2055664,7.0136719-8.4055786,8.2896118c-1.8004761,1.913269-17.3364258,25.4072266-27.5360718,34.338562  c-27,24.2389526-51.9569092,31.3372803-88.5570679,31.9746704c-16.1987915,0.6384277-17.9992676,3.8320923-20.399292,3.8320923  c-8.4012451,0.6373901-46.7924194-1.2727051-58.7957764-3.1860352c0,0-53.3973389-10.2051392-74.4005127-20.4102173  c-11.3996582-5.1035767-86.4050293-60.6016846-103.2052002-91.857666  c-52.200531-98.2316895-40.1960449-202.8430176,13.8040466-273.0081177  c39.0001831-51.0297852,103.1976013-117.3682556,255.5943298-130.1272583  c77.4008179-6.3784485,146.4083862,3.8309326,200.4093628,29.3458252  c76.1978149,35.7210693,131.9972534,98.868103,166.796936,173.498291  C1154.8005371,743.2822266,1151.369751,887.5991211,1033.7697754,1021.5519409z M1859.5725098,384.5559998  c15.2548828,0,21.020874,7.152832,21.020874,22.4806824V873.010437  c-1.6055908,85.1798706-15.7664795,181.2363892-107.515625,247.2196655  c-66.7137451,48.0286865-181.7469482,67.1523438-279.5550537,46.5679932  c-48.8310547-10.2182617-114.3035889-34.8890381-149.0472412-93.5007324  c-10.6567383-19.7080078-18.0286865-50.9472046-16.2039795-64.1588745  c1.0948486-7.9561768,3.2115479-12.2623901,18.0288086-12.2623901h121.383667  c12.9927979,0,12.0435791,0.7293091,17.5179443,10.4369507c9.2700195,18.02948,23.6486816,30.4379272,43.7944336,37.8825073  l4.5250244,1.5325928c48.4664307,15.4018555,93.5018311,9.4888916,126.8591309-16.8604736  c33.7939453-26.6410522,51.2390137-70.8011475,47.954834-121.164917l-0.6574707-9.6347046l-7.9561768,5.4013672  c-12.4812012,7.5914307-43.5026855,28.9041748-89.9248047,38.2471313  c-100.8734131,20.2186279-189.3374023-5.4743042-250.0662842-77.3705444  c-72.5528564-85.9102173-90.7276611-221.5267334-44.9624023-337.4361572  c27.6635742-70.1447449,82.114502-121.383728,153.2803955-144.2301025  c73.6478271-23.7216187,153.5732422-12.7730408,219.1918945,29.853363  c8.6865234,5.4743042,15.6934814,6.2046814,20.583252,3.5769348c3.7227783-1.971344,6.569458-5.1096191,8.3209229-16.0582275  c2.3359375-13.1387024,9.1241455-16.4188232,34.3795166-16.4188232h109.0483398V384.5559998z M1677.8244629,778.7793579  c45.255249-53.6478882,54.0136719-151.6746826,19.3424072-218.3883667  c-25.3272705-48.8310852-68.829834-72.991333-122.4777832-67.8817139  c-78.5385742,7.3716431-114.012085,76.4943237-120.946167,138.7557983  c-10.7298584,96.4931641,35.3276367,163.9371948,86.3479004,180.7247925  c17.0073242,5.6201172,33.4302979,8.3937378,48.9769287,8.3937378c35.0358887,0,65.6186523-14.086853,88.7567139-41.531311  V778.7793579z M2283.0690918,387.3336487c0-8.3937683-5.1826172-9.8535156-13.357666-11.2403259  c-7.8093262-1.3138733-22.5537109-2.7006836-33.5751953-2.7006836c-42.5544434,0-96.9316406,13.2835693-129.2668457,37.2250061  c-4.0876465,2.4089355-5.6931152,3.2112732-9.8535156,2.4089355c-3.8688965-0.7303772-6.715332-4.4521484-9.0512695-9.1241455  c-5.8391113-11.7519226-7.8105469-19.2694702-20.145752-19.2694702l-114.0913086,0.0000305c-11.0456543,0-20,8.9543152-20,20  v547.7241821c0,11.0457153,8.9543457,20,20,20h116.5c11.0456543,0,20-8.9542847,20-20V652.1442261  c0-108.0991821,64.7424316-124.3032227,103.3552246-124.3032227c10.1281738,0,58.3317871,0,79.4902344,0  c5.5227051,0,9.9960938-4.4771729,9.9960938-10V387.3336487z M2318.8999023,539.2251587v-0.145874  c1.6816406-12.4812622,4.963623-30.6566467,11.6091309-45.619812c18.1025391-30.6556702,37.4406738-57.0789795,64.8122559-75.399231  c52.0483398-34.8900452,123.9416504-52.9914856,202.6220703-50.8013611  c138.3261719,3.7217712,215.3959961,63.79422,229.3449707,178.462677  c1.7526855,14.3057251,0.3649902,284.6635132,0.3649902,319.2617798c0,28.6124268,2.8464355,51.0931396,4.963623,67.5159912  c2.1879883,17.8097534,3.7885742,30.6566772-0.2937012,35.3276978c-2.704834,3.0663452-9.3500977,4.5301514-20.2907715,4.5301514  h-120.6594238c-6.2705078,0-8.0229492-3.2892456-10.2922363-19.2745361l-0.2126465-1.5326538  c-0.7294922-6.788147-5.034668-8.8313599-9.998291-8.8313599c-2.1171875-0.072937-4.1635742,0.5834351-5.9870605,1.8244019  c-72.6325684,51.4588013-188.7539062,56.7872314-270.3618164,12.4083252  c-56.7893066-30.9473877-93.1359863-90.4353027-94.8146973-155.1047363  c-1.5324707-60.1453857,26.7910156-112.6253052,77.7353516-143.9384155  c49.7792969-30.5097656,104.5222168-39.4151001,157.4418945-48.02771  c33.4291992-5.4013672,67.9526367-11.0215454,100.8044434-22.0430908  c19.4091797-6.5693359,30.6535645-20.1456909,30.6535645-37.3718872  c0.1418457-21.9701538-17.5959473-44.1590576-42.1916504-52.6257935c-11.8220215-4.161438-28.171875-6.4964294-45.4030762-6.4964294  c-29.9953613,0-62.6242676,7.1528625-78.9741211,24.9625549c-8.5397949,9.2700195-11.5280762,18.9047241-13.6452637,25.9846802  c-2.9174805,9.7076416-3.7988281,11.8248901-11.6801758,11.8248901c-4.963623,0-14.0908203,0.145813-25.4770508,0.364624  c-27.8779297,0.5845337-87.2910156,1.5327148-116.5668945,0.5845337  c-8.2458496-0.2198486-14.4455566-7.5185547-13.4223633-15.8394165H2318.8999023z M2671.5180664,702.0672607  c-0.1418457-3.7946777-2.4816895-7.152832-3.7175293-8.1749268c-3.505127-3.0653687-8.0332031-2.6277466-11.173584-2.1162109  c-24.4438477,4.0145874-98.0187988,21.8242798-112.980957,26.6411133  c-32.5581055,10.4380493-81.5371094,26.3503418-81.5371094,77.0058594c0,38.4660034,30.5827637,64.5235596,79.7036133,67.9545898  c3.434082,0.2188721,6.8681641,0.3647461,10.3730469,0.3647461c53.7907715,0,112.1098633-28.7583008,119.2617188-79.3408813  c3.2111816-22.1170044,0.1518555-79.99823,0-82.3342896H2671.5180664z M3403.2399902,636.4537354  c0,5.4743042-0.1506348,10.8756104-0.1506348,16.2041016v299.6993408c0,11.0457153-8.8779297,20-19.8293457,20h-122.1552734  c-10.9516602,0-19.8295898-8.9542847-19.8295898-20V600.3967285c0-61.6780396-36.7600098-97.0786743-100.9492188-97.0786743  c-64.1994629,0-103.8522949,50.8753052-103.8522949,123.6467896v325.392334c0,11.0457153-8.8779297,20-19.8293457,20h-115.5068359  c-10.951416,0-19.8293457-8.9542847-19.8293457-20V404.6329956c0-11.0456848,8.8779297-20,19.8293457-20h107.5454102  c9.1196289,0,12.5947266,3.506012,15.6279297,13.0678101c5.7248535,18.1014404,14.6237793,10.1452637,20.8508301,6.861084  c28.2226562-14.8901978,57.1687012-25.7658386,80.3999023-30.8025208  c49.7866211-10.6568604,172.8825684-23.2110901,231.7185059,61.678009  C3404.1740723,502.8804626,3403.6018066,576.9658203,3403.2399902,636.4537354z M4325.918457,539.2251587  c-1.0229492,8.3208618,5.1767578,15.6195679,13.4223633,15.8394165c29.2758789,0.9481812,88.6889648,0,116.5668945-0.5845337  c11.3862305-0.218811,20.5136719-0.364624,25.4775391-0.364624c7.8808594,0,8.762207-2.1172485,11.6796875-11.8248901  c2.1171875-7.0799561,5.1054688-16.7146606,13.6455078-25.9846802  c16.3496094-17.8096924,48.9790039-24.9625549,78.9741211-24.9625549c17.230957,0,33.5810547,2.3349915,45.402832,6.4964294  c24.5957031,8.4667358,42.3334961,30.6556396,42.1918945,52.6257935c0,17.2261963-11.2446289,30.8025513-30.6538086,37.3718872  c-32.8515625,11.0215454-67.375,16.6417236-100.8041992,22.0430908  c-52.9199219,8.6126099-107.6625977,17.5179443-157.4418945,48.02771  c-50.9443359,31.3131104-79.2680664,83.7930298-77.7353516,143.9384155  c1.6787109,64.6694336,38.0253906,124.1573486,94.8144531,155.1047363  c81.6079102,44.3789062,197.7294922,39.0504761,270.3618164-12.4083252  c1.8237305-1.2409668,3.8701172-1.8973389,5.9873047-1.8244019c4.9638672,0,9.2685547,2.0432129,9.9980469,8.8313599  l0.2128906,1.5326538c2.269043,15.9852905,4.0214844,19.2745361,10.2919922,19.2745361h120.659668  c10.9404297,0,17.5859375-1.4638062,20.2905273-4.5301514c4.0825195-4.6710205,2.4819336-17.5179443,0.2939453-35.3276978  c-2.1171875-16.4228516-4.9638672-38.9035645-4.9638672-67.5159912c0-34.5982666,1.3876953-304.9560547-0.3647461-319.2617798  c-13.9492188-114.668457-91.019043-174.7409058-229.3452148-178.462677  c-60.2026367-1.6757812-123.8237305,7.8685303-177.7851562,35.8183899  c-47.387207,24.5446472-99.9082031,77.3175354-101.234375,134.1254883  c-0.0146484,0.6254272-0.0224609,1.2509155-0.0239258,1.8765259v0.145874H4325.918457z M4678.3847656,702.0672607  c0.1523438,2.3360596,3.2114258,60.2172852,0,82.3342896c-7.1518555,50.5825806-65.4707031,79.3408813-119.2612305,79.3408813  c-3.5053711,0-6.9394531-0.145874-10.3735352-0.3647461c-49.1206055-3.4310303-79.7036133-29.4885864-79.7036133-67.9545898  c0-50.6555176,48.9790039-66.5678101,81.5371094-77.0058594c14.9624023-4.8168335,88.5371094-22.6265259,112.980957-26.6411133  c3.140625-0.5115356,7.668457-0.9491577,11.1738281,2.1162109c1.2358398,1.0220947,3.5756836,4.380249,3.7172852,8.1749268  H4678.3847656z M4244.2675781,972.3571777h-116.5c-11.0458984,0-20-8.9542847-20-20V195c0-11.0457001,8.9541016-20,20-20h116.5  c11.0458984,0,20,8.9542999,20,20v757.3571777C4264.2675781,963.4028931,4255.3134766,972.3571777,4244.2675781,972.3571777z  M3963.2780762,446.1205444c-55.6323242-51.7967529-120.4570312-80.3452148-207.7402344-80.3452148  s-152.1083984,28.5484619-207.7407227,80.3452148c-119.6025391,111.3568726-132.2558594,321.4584961-24.1811523,444.4953613  c57.2978516,65.2305298,143.3222656,100.7022705,231.921875,100.7022705  c88.5991211,0,174.6235352-35.4717407,231.921875-100.7022705  C4095.5344238,767.5790405,4082.8806152,557.477417,3963.2780762,446.1205444z M3897.8566895,681.0964966  c-0.434082,42.5952759-9.8657227,86.2011108-34.2675781,121.1166382  c-24.1079102,34.4943848-57.9267578,57.6951904-108.0512695,57.6951904c-50.125,0-83.9438477-23.2008057-108.0512695-57.6951904  c-24.4018555-34.9155273-33.8334961-78.5213623-34.2680664-121.1166382  c-0.4423828-43.378418,8.4335938-87.9902344,32.8413086-123.8531494  c24.4077148-35.862854,61.8999023-59.5629272,109.4780273-59.5629272c47.5776367,0,85.0703125,23.7000732,109.4780273,59.5629272  C3889.423584,593.1062622,3898.2995605,637.7180786,3897.8566895,681.0964966z"/></svg>