<svg width="32" height="32" viewBox="0 0 32 32" fill="none" xmlns="http://www.w3.org/2000/svg">
<path fill-rule="evenodd" clip-rule="evenodd" d="M9.82939 16.4049C9.82939 17.9788 8.55346 19.2548 6.97953 19.2548C5.4056 19.2548 4.12968 17.9788 4.12968 16.4049C4.12968 14.831 5.4056 13.555 6.97953 13.555C8.55346 13.555 9.82939 14.831 9.82939 16.4049ZM1.05469 16.4433C1.05469 19.7122 3.70468 22.3622 6.97361 22.3622C10.2425 22.3622 12.8925 19.7122 12.8925 16.4433C12.8925 13.1743 10.2425 10.5244 6.97361 10.5244C3.70468 10.5244 1.05469 13.1743 1.05469 16.4433ZM15.8113 10.6864C16.7069 10.6864 17.4329 11.4124 17.4329 12.308V20.5783C17.4329 21.4739 16.7069 22.1999 15.8113 22.1999C14.9157 22.1999 14.1897 21.4739 14.1897 20.5783V12.308C14.1897 11.4124 14.9157 10.6864 15.8113 10.6864ZM20.352 10.6864C21.2476 10.6864 21.9736 11.4124 21.9736 12.308V20.5783C21.9736 21.4739 21.2476 22.1999 20.352 22.1999C19.4564 22.1999 18.7304 21.4739 18.7304 20.5783V12.308C18.7304 11.4124 19.4564 10.6864 20.352 10.6864ZM26.5141 16.0379C26.5141 15.1423 25.7881 14.4163 24.8925 14.4163C23.9969 14.4163 23.2709 15.1423 23.2709 16.0379V17.0109C23.2709 17.9065 23.9969 18.6325 24.8925 18.6325C25.7881 18.6325 26.5141 17.9065 26.5141 17.0109V16.0379ZM29.4331 12.7946C30.3287 12.7946 31.0547 13.5207 31.0547 14.4163V18.4703C31.0547 19.3659 30.3287 20.0919 29.4331 20.0919C28.5375 20.0919 27.8114 19.3659 27.8114 18.4703V14.4163C27.8114 13.5207 28.5375 12.7946 29.4331 12.7946Z" fill="#007AFF"/>
</svg>
